<svg width="695" height="218" viewBox="0 0 695 218" fill="none" xmlns="http://www.w3.org/2000/svg">
<path d="M305.657 141.357C304.686 141.357 303.85 141.221 303.15 140.95C302.464 140.679 301.914 140.286 301.5 139.771C301.1 139.243 300.829 138.629 300.686 137.929C300.557 137.214 300.571 136.421 300.729 135.55C300.829 134.964 300.95 134.336 301.093 133.664C301.25 132.993 301.4 132.35 301.543 131.736C301.829 130.579 302.264 129.564 302.85 128.693C303.436 127.821 304.2 127.143 305.143 126.657C306.086 126.171 307.214 125.929 308.529 125.929C309.514 125.929 310.357 126.057 311.057 126.314C311.771 126.571 312.343 126.929 312.771 127.386C313.2 127.843 313.493 128.357 313.65 128.929C313.807 129.5 313.829 130.093 313.714 130.707C313.7 130.836 313.657 130.943 313.586 131.029C313.514 131.114 313.414 131.157 313.286 131.157H312.064C311.921 131.157 311.8 131.121 311.7 131.05C311.614 130.979 311.571 130.85 311.571 130.664C311.657 129.593 311.407 128.843 310.821 128.414C310.236 127.971 309.443 127.75 308.443 127.75C307.3 127.75 306.3 128.079 305.443 128.736C304.6 129.379 304 130.414 303.643 131.843C303.343 133.014 303.086 134.214 302.871 135.443C302.629 136.871 302.757 137.914 303.257 138.571C303.771 139.214 304.6 139.536 305.743 139.536C306.743 139.536 307.629 139.329 308.4 138.914C309.171 138.5 309.8 137.736 310.286 136.621C310.371 136.436 310.457 136.307 310.543 136.236C310.643 136.164 310.757 136.129 310.886 136.129H312.107C312.236 136.129 312.336 136.171 312.407 136.257C312.479 136.343 312.493 136.45 312.45 136.579C312.293 137.164 312.043 137.743 311.7 138.314C311.357 138.886 310.914 139.4 310.371 139.857C309.829 140.314 309.171 140.679 308.4 140.95C307.629 141.221 306.714 141.357 305.657 141.357ZM317.637 141.357C316.851 141.357 316.201 141.221 315.687 140.95C315.172 140.664 314.779 140.286 314.508 139.814C314.237 139.329 314.065 138.779 313.994 138.164C313.937 137.55 313.958 136.9 314.058 136.214C314.101 135.986 314.144 135.771 314.187 135.571C314.229 135.371 314.279 135.157 314.337 134.929C314.508 134.257 314.737 133.621 315.022 133.021C315.308 132.407 315.665 131.857 316.094 131.371C316.537 130.871 317.065 130.486 317.679 130.214C318.308 129.929 319.037 129.786 319.865 129.786C320.779 129.786 321.465 129.943 321.922 130.257C322.394 130.557 322.758 130.929 323.015 131.371L323.187 130.493C323.215 130.35 323.279 130.236 323.379 130.15C323.494 130.05 323.629 130 323.787 130H324.751C324.894 130 325.001 130.05 325.072 130.15C325.158 130.236 325.187 130.35 325.158 130.493L322.994 140.65C322.965 140.793 322.894 140.914 322.779 141.014C322.679 141.1 322.558 141.143 322.415 141.143H321.429C321.287 141.143 321.179 141.1 321.108 141.014C321.037 140.914 321.015 140.793 321.044 140.65L321.237 139.75C320.794 140.207 320.308 140.593 319.779 140.907C319.265 141.207 318.551 141.357 317.637 141.357ZM318.087 139.621C318.801 139.621 319.415 139.457 319.929 139.129C320.458 138.8 320.887 138.386 321.215 137.886C321.544 137.371 321.772 136.85 321.901 136.321C321.958 136.093 322.015 135.821 322.072 135.507C322.144 135.179 322.201 134.9 322.244 134.671C322.358 134.171 322.365 133.679 322.265 133.193C322.179 132.707 321.958 132.307 321.601 131.993C321.258 131.679 320.737 131.521 320.037 131.521C319.365 131.521 318.787 131.686 318.301 132.014C317.829 132.329 317.437 132.75 317.122 133.279C316.822 133.793 316.579 134.35 316.394 134.95C316.337 135.164 316.287 135.371 316.244 135.571C316.201 135.771 316.165 135.979 316.137 136.193C316.051 136.793 316.029 137.357 316.072 137.886C316.115 138.4 316.294 138.821 316.608 139.15C316.922 139.464 317.415 139.621 318.087 139.621ZM326.057 141.143C325.914 141.143 325.8 141.1 325.714 141.014C325.642 140.914 325.621 140.793 325.65 140.65L327.814 130.514C327.842 130.371 327.914 130.25 328.028 130.15C328.142 130.05 328.271 130 328.414 130H329.4C329.542 130 329.65 130.05 329.721 130.15C329.807 130.25 329.835 130.371 329.807 130.514L329.592 131.457C329.921 130.971 330.357 130.607 330.9 130.364C331.457 130.121 332.1 130 332.828 130H333.75C333.892 130 333.992 130.05 334.05 130.15C334.121 130.236 334.142 130.35 334.114 130.493L333.942 131.371C333.914 131.514 333.842 131.629 333.728 131.714C333.628 131.8 333.5 131.843 333.342 131.843H332.078C331.307 131.843 330.65 132.071 330.107 132.529C329.564 132.971 329.207 133.579 329.035 134.35L327.707 140.65C327.678 140.793 327.607 140.914 327.492 141.014C327.378 141.1 327.25 141.143 327.107 141.143H326.057ZM337.882 141.357C336.91 141.357 336.103 141.15 335.46 140.736C334.832 140.321 334.396 139.736 334.153 138.979C333.91 138.207 333.86 137.307 334.003 136.279C334.032 136.093 334.075 135.857 334.132 135.571C334.203 135.271 334.267 135.029 334.325 134.843C334.61 133.829 335.032 132.943 335.589 132.186C336.16 131.414 336.853 130.821 337.667 130.407C338.482 129.993 339.375 129.786 340.346 129.786C341.432 129.786 342.289 130.014 342.917 130.471C343.546 130.929 343.967 131.579 344.182 132.421C344.396 133.264 344.389 134.25 344.16 135.379L344.075 135.743C344.046 135.9 343.967 136.021 343.839 136.107C343.725 136.193 343.596 136.236 343.453 136.236H336.06C336.06 136.25 336.053 136.279 336.039 136.321C336.039 136.364 336.032 136.4 336.017 136.429C335.932 137.014 335.946 137.564 336.06 138.079C336.175 138.579 336.41 138.986 336.767 139.3C337.139 139.614 337.625 139.771 338.225 139.771C338.739 139.771 339.182 139.693 339.553 139.536C339.939 139.379 340.253 139.207 340.496 139.021C340.739 138.821 340.91 138.671 341.01 138.571C341.182 138.386 341.303 138.279 341.375 138.25C341.46 138.207 341.589 138.186 341.76 138.186H342.789C342.917 138.186 343.017 138.229 343.089 138.314C343.16 138.386 343.182 138.493 343.153 138.636C343.096 138.85 342.925 139.114 342.639 139.429C342.367 139.729 341.996 140.029 341.525 140.329C341.067 140.629 340.532 140.879 339.917 141.079C339.303 141.264 338.625 141.357 337.882 141.357ZM336.382 134.757H342.232L342.253 134.693C342.425 134.05 342.439 133.479 342.296 132.979C342.167 132.479 341.91 132.086 341.525 131.8C341.139 131.5 340.639 131.35 340.025 131.35C339.41 131.35 338.86 131.5 338.375 131.8C337.889 132.086 337.475 132.479 337.132 132.979C336.803 133.479 336.56 134.05 336.403 134.693L336.382 134.757ZM349.295 141.357C348.324 141.357 347.516 141.15 346.874 140.736C346.245 140.321 345.809 139.736 345.566 138.979C345.324 138.207 345.274 137.307 345.416 136.279C345.445 136.093 345.488 135.857 345.545 135.571C345.616 135.271 345.681 135.029 345.738 134.843C346.024 133.829 346.445 132.943 347.002 132.186C347.574 131.414 348.266 130.821 349.081 130.407C349.895 129.993 350.788 129.786 351.759 129.786C352.845 129.786 353.702 130.014 354.331 130.471C354.959 130.929 355.381 131.579 355.595 132.421C355.809 133.264 355.802 134.25 355.574 135.379L355.488 135.743C355.459 135.9 355.381 136.021 355.252 136.107C355.138 136.193 355.009 136.236 354.866 136.236H347.474C347.474 136.25 347.466 136.279 347.452 136.321C347.452 136.364 347.445 136.4 347.431 136.429C347.345 137.014 347.359 137.564 347.474 138.079C347.588 138.579 347.824 138.986 348.181 139.3C348.552 139.614 349.038 139.771 349.638 139.771C350.152 139.771 350.595 139.693 350.966 139.536C351.352 139.379 351.666 139.207 351.909 139.021C352.152 138.821 352.324 138.671 352.424 138.571C352.595 138.386 352.716 138.279 352.788 138.25C352.874 138.207 353.002 138.186 353.174 138.186H354.202C354.331 138.186 354.431 138.229 354.502 138.314C354.574 138.386 354.595 138.493 354.566 138.636C354.509 138.85 354.338 139.114 354.052 139.429C353.781 139.729 353.409 140.029 352.938 140.329C352.481 140.629 351.945 140.879 351.331 141.079C350.716 141.264 350.038 141.357 349.295 141.357ZM347.795 134.757H353.645L353.666 134.693C353.838 134.05 353.852 133.479 353.709 132.979C353.581 132.479 353.324 132.086 352.938 131.8C352.552 131.5 352.052 131.35 351.438 131.35C350.824 131.35 350.274 131.5 349.788 131.8C349.302 132.086 348.888 132.479 348.545 132.979C348.216 133.479 347.974 134.05 347.816 134.693L347.795 134.757ZM356.53 141.143C356.387 141.143 356.272 141.1 356.187 141.014C356.115 140.914 356.094 140.793 356.122 140.65L358.287 130.514C358.315 130.371 358.387 130.25 358.501 130.15C358.615 130.05 358.744 130 358.887 130H359.872C360.015 130 360.122 130.05 360.194 130.15C360.28 130.25 360.308 130.371 360.28 130.514L360.065 131.457C360.394 130.971 360.83 130.607 361.372 130.364C361.93 130.121 362.572 130 363.301 130H364.222C364.365 130 364.465 130.05 364.522 130.15C364.594 130.236 364.615 130.35 364.587 130.493L364.415 131.371C364.387 131.514 364.315 131.629 364.201 131.714C364.101 131.8 363.972 131.843 363.815 131.843H362.551C361.78 131.843 361.122 132.071 360.58 132.529C360.037 132.971 359.68 133.579 359.508 134.35L358.18 140.65C358.151 140.793 358.08 140.914 357.965 141.014C357.851 141.1 357.722 141.143 357.58 141.143H356.53ZM369.255 141.143C369.112 141.143 369.005 141.1 368.933 141.014C368.862 140.914 368.84 140.793 368.869 140.65L371.848 126.657C371.876 126.5 371.94 126.379 372.04 126.293C372.155 126.193 372.283 126.143 372.426 126.143H381.19C381.348 126.143 381.455 126.193 381.512 126.293C381.583 126.379 381.605 126.5 381.576 126.657L381.405 127.514C381.376 127.671 381.305 127.793 381.19 127.879C381.09 127.964 380.962 128.007 380.805 128.007H373.648L372.576 133H379.305C379.462 133 379.569 133.05 379.626 133.15C379.698 133.236 379.719 133.357 379.69 133.514L379.519 134.371C379.505 134.514 379.44 134.636 379.326 134.736C379.212 134.821 379.076 134.864 378.919 134.864H372.19L370.948 140.65C370.919 140.793 370.848 140.914 370.733 141.014C370.633 141.1 370.505 141.143 370.348 141.143H369.255ZM385.153 141.357C384.11 141.357 383.253 141.15 382.581 140.736C381.91 140.321 381.439 139.75 381.167 139.021C380.91 138.279 380.86 137.436 381.017 136.493C381.046 136.25 381.103 135.943 381.189 135.571C381.274 135.186 381.353 134.879 381.424 134.65C381.653 133.693 382.024 132.85 382.539 132.121C383.053 131.393 383.71 130.821 384.51 130.407C385.31 129.993 386.246 129.786 387.317 129.786C388.374 129.786 389.239 129.993 389.91 130.407C390.581 130.821 391.053 131.393 391.324 132.121C391.596 132.85 391.646 133.693 391.474 134.65C391.431 134.879 391.367 135.186 391.281 135.571C391.21 135.943 391.146 136.25 391.089 136.493C390.846 137.436 390.467 138.279 389.953 139.021C389.453 139.75 388.803 140.321 388.003 140.736C387.203 141.15 386.253 141.357 385.153 141.357ZM385.239 139.707C386.139 139.707 386.931 139.429 387.617 138.871C388.303 138.3 388.781 137.471 389.053 136.386C389.11 136.171 389.174 135.9 389.246 135.571C389.317 135.243 389.374 134.971 389.417 134.757C389.603 133.671 389.51 132.85 389.139 132.293C388.767 131.721 388.131 131.436 387.231 131.436C386.346 131.436 385.56 131.721 384.874 132.293C384.189 132.85 383.71 133.671 383.439 134.757C383.381 134.971 383.317 135.243 383.246 135.571C383.174 135.9 383.124 136.171 383.096 136.386C382.896 137.471 382.974 138.3 383.331 138.871C383.703 139.429 384.339 139.707 385.239 139.707ZM396.601 141.357C395.587 141.357 394.787 141.157 394.201 140.757C393.63 140.343 393.259 139.771 393.087 139.043C392.93 138.314 392.944 137.479 393.13 136.536L394.416 130.493C394.444 130.35 394.516 130.236 394.63 130.15C394.744 130.05 394.873 130 395.016 130H396.087C396.23 130 396.33 130.05 396.387 130.15C396.459 130.236 396.48 130.35 396.451 130.493L395.209 136.429C395.051 137.129 394.994 137.721 395.037 138.207C395.094 138.679 395.28 139.036 395.594 139.279C395.923 139.507 396.43 139.621 397.116 139.621C398.044 139.621 398.859 139.343 399.559 138.786C400.259 138.214 400.716 137.429 400.93 136.429L402.194 130.493C402.223 130.35 402.294 130.236 402.409 130.15C402.523 130.05 402.651 130 402.794 130H403.844C403.987 130 404.094 130.05 404.166 130.15C404.237 130.236 404.259 130.35 404.23 130.493L402.066 140.65C402.037 140.793 401.966 140.914 401.851 141.014C401.751 141.1 401.63 141.143 401.487 141.143H400.501C400.359 141.143 400.244 141.1 400.159 141.014C400.087 140.914 400.066 140.793 400.094 140.65L400.287 139.707C399.973 140.036 399.651 140.329 399.323 140.586C398.994 140.829 398.616 141.014 398.187 141.143C397.773 141.286 397.244 141.357 396.601 141.357ZM405.121 141.143C404.978 141.143 404.863 141.1 404.778 141.014C404.706 140.914 404.685 140.793 404.713 140.65L406.878 130.493C406.906 130.35 406.978 130.236 407.092 130.15C407.206 130.05 407.335 130 407.478 130H408.485C408.628 130 408.735 130.05 408.806 130.15C408.878 130.236 408.899 130.35 408.871 130.493L408.656 131.436C409.099 130.95 409.635 130.557 410.263 130.257C410.892 129.943 411.606 129.786 412.406 129.786C413.435 129.786 414.242 129.993 414.828 130.407C415.413 130.807 415.792 131.371 415.963 132.1C416.135 132.814 416.113 133.65 415.899 134.607L414.613 140.65C414.585 140.793 414.513 140.914 414.399 141.014C414.299 141.1 414.178 141.143 414.035 141.143H412.963C412.821 141.143 412.706 141.1 412.621 141.014C412.549 140.914 412.528 140.793 412.556 140.65L413.821 134.714C414.049 133.657 414.035 132.864 413.778 132.336C413.535 131.793 412.906 131.521 411.892 131.521C410.906 131.521 410.063 131.807 409.363 132.379C408.678 132.936 408.228 133.714 408.013 134.714L406.771 140.65C406.742 140.793 406.671 140.914 406.556 141.014C406.456 141.1 406.335 141.143 406.192 141.143H405.121ZM421.266 141.357C420.48 141.357 419.823 141.221 419.294 140.95C418.766 140.664 418.359 140.286 418.073 139.814C417.787 139.329 417.609 138.779 417.537 138.164C417.466 137.55 417.48 136.9 417.58 136.214C417.623 135.986 417.666 135.771 417.709 135.571C417.752 135.371 417.802 135.157 417.859 134.929C418.03 134.257 418.266 133.621 418.566 133.021C418.866 132.407 419.237 131.857 419.68 131.371C420.123 130.871 420.652 130.486 421.266 130.214C421.894 129.929 422.616 129.786 423.43 129.786C424.316 129.786 425.009 129.936 425.509 130.236C426.023 130.536 426.402 130.907 426.644 131.35L427.716 126.421C427.744 126.279 427.809 126.164 427.909 126.079C428.023 125.979 428.152 125.929 428.294 125.929H429.323C429.48 125.929 429.594 125.979 429.666 126.079C429.737 126.164 429.759 126.279 429.73 126.421L426.687 140.65C426.659 140.793 426.594 140.914 426.494 141.014C426.394 141.1 426.266 141.143 426.109 141.143H425.144C425.002 141.143 424.887 141.1 424.802 141.014C424.73 140.914 424.709 140.793 424.737 140.65L424.93 139.75C424.487 140.207 423.987 140.593 423.43 140.907C422.887 141.207 422.166 141.357 421.266 141.357ZM421.694 139.621C422.409 139.621 423.037 139.457 423.58 139.129C424.123 138.8 424.559 138.386 424.887 137.886C425.23 137.371 425.466 136.85 425.594 136.321C425.666 136.093 425.73 135.821 425.787 135.507C425.859 135.179 425.916 134.9 425.959 134.671C426.059 134.171 426.052 133.679 425.937 133.193C425.837 132.707 425.602 132.307 425.23 131.993C424.873 131.679 424.344 131.521 423.644 131.521C422.973 131.521 422.387 131.686 421.887 132.014C421.402 132.329 420.994 132.75 420.666 133.279C420.352 133.793 420.102 134.35 419.916 134.95C419.859 135.164 419.809 135.371 419.766 135.571C419.723 135.771 419.687 135.979 419.659 136.193C419.573 136.793 419.559 137.357 419.616 137.886C419.687 138.4 419.88 138.821 420.194 139.15C420.523 139.464 421.023 139.621 421.694 139.621ZM429.768 141.143C429.625 141.143 429.51 141.1 429.425 141.014C429.353 140.914 429.332 140.793 429.36 140.65L431.525 130.514C431.553 130.371 431.625 130.25 431.739 130.15C431.853 130.05 431.982 130 432.125 130H433.11C433.253 130 433.36 130.05 433.432 130.15C433.518 130.25 433.546 130.371 433.518 130.514L433.303 131.457C433.632 130.971 434.068 130.607 434.61 130.364C435.168 130.121 435.81 130 436.539 130H437.46C437.603 130 437.703 130.05 437.76 130.15C437.832 130.236 437.853 130.35 437.825 130.493L437.653 131.371C437.625 131.514 437.553 131.629 437.439 131.714C437.339 131.8 437.21 131.843 437.053 131.843H435.789C435.018 131.843 434.36 132.071 433.818 132.529C433.275 132.971 432.918 133.579 432.746 134.35L431.418 140.65C431.389 140.793 431.318 140.914 431.203 141.014C431.089 141.1 430.96 141.143 430.818 141.143H429.768ZM437.95 145.214C437.778 145.214 437.664 145.143 437.607 145C437.55 144.857 437.586 144.693 437.714 144.507L440.35 140.393L438.25 130.579C438.221 130.436 438.243 130.307 438.314 130.193C438.386 130.064 438.528 130 438.743 130H439.686C439.843 130 439.957 130.036 440.028 130.107C440.1 130.164 440.143 130.25 440.157 130.364L441.786 138.186L446.821 130.364C446.878 130.264 446.957 130.179 447.057 130.107C447.157 130.036 447.286 130 447.443 130H448.557C448.686 130 448.793 130.057 448.878 130.171C448.978 130.286 448.971 130.436 448.857 130.621L439.664 144.85C439.593 144.95 439.507 145.036 439.407 145.107C439.321 145.179 439.2 145.214 439.043 145.214H437.95Z" fill="#0B1956"/>
<circle cx="257.429" cy="135.429" r="24.2857" fill="#0B1956"/>
<path fill-rule="evenodd" clip-rule="evenodd" d="M257.769 133.703C258.657 133.703 259.508 133.368 260.136 132.772C260.764 132.175 261.117 131.366 261.117 130.523C261.117 129.679 260.764 128.87 260.136 128.274C259.508 127.677 258.657 127.342 257.769 127.342C256.881 127.342 256.029 127.677 255.401 128.274C254.773 128.87 254.421 129.679 254.421 130.523C254.421 131.366 254.773 132.175 255.401 132.772C256.029 133.368 256.881 133.703 257.769 133.703ZM257.769 128.933C258.213 128.933 258.639 129.1 258.952 129.398C259.266 129.697 259.443 130.101 259.443 130.523C259.443 130.945 259.266 131.349 258.952 131.647C258.639 131.946 258.213 132.113 257.769 132.113C257.325 132.113 256.899 131.946 256.585 131.647C256.271 131.349 256.095 130.945 256.095 130.523C256.095 130.101 256.271 129.697 256.585 129.398C256.899 129.1 257.325 128.933 257.769 128.933Z" fill="#FAF3EB"/>
<path fill-rule="evenodd" clip-rule="evenodd" d="M250.874 133.477C250.472 132.304 250.235 131.164 250.235 130.183C250.235 125.991 253.595 122.571 257.768 122.571C261.942 122.571 265.302 125.991 265.302 130.183C265.302 131.164 265.065 132.304 264.663 133.476C265.135 133.717 265.564 134.029 265.934 134.401C266.438 134.906 266.818 135.51 267.05 136.17L269.283 142.531C269.535 143.249 269.604 144.013 269.483 144.76C269.363 145.508 269.058 146.218 268.592 146.831C268.126 147.444 267.514 147.944 266.805 148.288C266.096 148.632 265.311 148.812 264.515 148.811H251.022C250.226 148.811 249.442 148.632 248.734 148.287C248.025 147.943 247.413 147.443 246.948 146.83C246.483 146.216 246.177 145.507 246.057 144.759C245.937 144.012 246.006 143.248 246.258 142.531L248.489 136.17C248.725 135.498 249.115 134.885 249.631 134.374C249.995 134.014 250.414 133.712 250.874 133.477ZM251.473 134.985C251.242 135.123 251.029 135.287 250.838 135.475C250.494 135.816 250.234 136.226 250.076 136.674L247.845 143.035C247.677 143.513 247.632 144.023 247.712 144.521C247.792 145.019 247.996 145.492 248.306 145.901C248.616 146.309 249.024 146.642 249.497 146.872C249.969 147.101 250.492 147.221 251.022 147.221H264.519C265.049 147.221 265.572 147.101 266.044 146.871C266.517 146.642 266.925 146.309 267.235 145.9C267.545 145.491 267.748 145.018 267.828 144.519C267.908 144.021 267.862 143.512 267.694 143.034L265.465 136.673C265.31 136.233 265.056 135.83 264.721 135.494C264.525 135.297 264.304 135.126 264.065 134.983C262.524 138.406 259.844 141.655 257.768 141.655C255.695 141.655 253.014 138.407 251.473 134.985ZM257.768 140.065C259.697 140.065 263.628 133.67 263.628 130.183C263.628 126.845 260.991 124.162 257.768 124.162C254.546 124.162 251.909 126.845 251.909 130.183C251.909 133.672 255.842 140.065 257.768 140.065Z" fill="#FAF3EB"/>
<path d="M114.35 143.286C114.207 143.286 114.1 143.243 114.029 143.157C113.957 143.057 113.936 142.936 113.964 142.793L114.114 142.107C114.143 141.979 114.207 141.836 114.307 141.679C114.407 141.521 114.586 141.35 114.843 141.164L120.371 136.621C121.214 136.007 121.893 135.486 122.407 135.057C122.936 134.614 123.329 134.193 123.586 133.793C123.857 133.393 124.036 132.979 124.121 132.55C124.293 131.736 124.2 131.093 123.843 130.621C123.486 130.136 122.857 129.893 121.957 129.893C121.386 129.893 120.871 130.014 120.414 130.257C119.957 130.486 119.564 130.807 119.236 131.221C118.907 131.621 118.65 132.079 118.464 132.593C118.407 132.779 118.307 132.907 118.164 132.979C118.036 133.05 117.914 133.086 117.8 133.086H116.707C116.564 133.086 116.464 133.05 116.407 132.979C116.35 132.893 116.329 132.793 116.343 132.679C116.471 132.136 116.7 131.593 117.029 131.05C117.357 130.493 117.779 129.993 118.293 129.55C118.807 129.107 119.4 128.75 120.071 128.479C120.757 128.193 121.514 128.05 122.343 128.05C123.471 128.05 124.35 128.257 124.979 128.671C125.621 129.071 126.043 129.607 126.243 130.279C126.443 130.95 126.457 131.686 126.286 132.486C126.157 133.114 125.929 133.693 125.6 134.221C125.286 134.736 124.871 135.243 124.357 135.743C123.843 136.229 123.229 136.729 122.514 137.243L117.521 141.421H124.207C124.364 141.421 124.471 141.464 124.529 141.55C124.6 141.636 124.621 141.757 124.593 141.914L124.421 142.793C124.393 142.936 124.321 143.057 124.207 143.157C124.093 143.243 123.957 143.286 123.8 143.286H114.35ZM131.47 143.286C131.327 143.286 131.212 143.243 131.127 143.157C131.055 143.057 131.034 142.936 131.062 142.793L133.227 132.636C133.255 132.493 133.327 132.379 133.441 132.293C133.555 132.193 133.684 132.143 133.827 132.143H134.791C134.934 132.143 135.041 132.193 135.112 132.293C135.184 132.379 135.205 132.493 135.177 132.636L135.027 133.386C135.312 133.086 135.598 132.829 135.884 132.614C136.184 132.4 136.52 132.236 136.891 132.121C137.262 131.993 137.698 131.929 138.198 131.929C139.012 131.929 139.698 132.1 140.255 132.443C140.812 132.771 141.184 133.257 141.37 133.9C141.827 133.3 142.362 132.821 142.977 132.464C143.605 132.107 144.334 131.929 145.162 131.929C145.92 131.929 146.577 132.1 147.134 132.443C147.705 132.786 148.105 133.307 148.334 134.007C148.577 134.693 148.591 135.557 148.377 136.6L147.048 142.793C147.02 142.936 146.948 143.057 146.834 143.157C146.734 143.243 146.612 143.286 146.47 143.286H145.462C145.32 143.286 145.212 143.243 145.141 143.157C145.07 143.057 145.048 142.936 145.077 142.793L146.341 136.793C146.512 135.993 146.548 135.364 146.448 134.907C146.348 134.45 146.134 134.129 145.805 133.943C145.491 133.757 145.112 133.664 144.67 133.664C144.284 133.664 143.862 133.757 143.405 133.943C142.962 134.129 142.548 134.45 142.162 134.907C141.791 135.364 141.52 135.993 141.348 136.793L140.062 142.793C140.034 142.936 139.962 143.057 139.848 143.157C139.748 143.243 139.627 143.286 139.484 143.286H138.477C138.334 143.286 138.22 143.243 138.134 143.157C138.062 143.057 138.041 142.936 138.07 142.793L139.355 136.793C139.527 135.993 139.555 135.364 139.441 134.907C139.327 134.45 139.112 134.129 138.798 133.943C138.484 133.757 138.105 133.664 137.662 133.664C137.291 133.664 136.877 133.757 136.42 133.943C135.977 134.129 135.562 134.45 135.177 134.907C134.805 135.364 134.534 135.986 134.362 136.771L133.077 142.793C133.048 142.936 132.977 143.057 132.862 143.157C132.762 143.243 132.641 143.286 132.498 143.286H131.47ZM154.112 143.5C153.069 143.5 152.212 143.293 151.541 142.879C150.869 142.464 150.398 141.893 150.126 141.164C149.869 140.421 149.819 139.579 149.976 138.636C150.005 138.393 150.062 138.086 150.148 137.714C150.234 137.329 150.312 137.021 150.384 136.793C150.612 135.836 150.984 134.993 151.498 134.264C152.012 133.536 152.669 132.964 153.469 132.55C154.269 132.136 155.205 131.929 156.276 131.929C157.334 131.929 158.198 132.136 158.869 132.55C159.541 132.964 160.012 133.536 160.284 134.264C160.555 134.993 160.605 135.836 160.434 136.793C160.391 137.021 160.326 137.329 160.241 137.714C160.169 138.086 160.105 138.393 160.048 138.636C159.805 139.579 159.426 140.421 158.912 141.164C158.412 141.893 157.762 142.464 156.962 142.879C156.162 143.293 155.212 143.5 154.112 143.5ZM154.198 141.85C155.098 141.85 155.891 141.571 156.576 141.014C157.262 140.443 157.741 139.614 158.012 138.529C158.069 138.314 158.134 138.043 158.205 137.714C158.276 137.386 158.334 137.114 158.376 136.9C158.562 135.814 158.469 134.993 158.098 134.436C157.726 133.864 157.091 133.579 156.191 133.579C155.305 133.579 154.519 133.864 153.834 134.436C153.148 134.993 152.669 135.814 152.398 136.9C152.341 137.114 152.276 137.386 152.205 137.714C152.134 138.043 152.084 138.314 152.055 138.529C151.855 139.614 151.934 140.443 152.291 141.014C152.662 141.571 153.298 141.85 154.198 141.85ZM161.725 143.286C161.582 143.286 161.468 143.243 161.382 143.157C161.311 143.057 161.289 142.936 161.318 142.793L163.482 132.636C163.511 132.493 163.582 132.379 163.696 132.293C163.811 132.193 163.939 132.143 164.082 132.143H165.089C165.232 132.143 165.339 132.193 165.411 132.293C165.482 132.379 165.503 132.493 165.475 132.636L165.261 133.579C165.703 133.093 166.239 132.7 166.868 132.4C167.496 132.086 168.211 131.929 169.011 131.929C170.039 131.929 170.846 132.136 171.432 132.55C172.018 132.95 172.396 133.514 172.568 134.243C172.739 134.957 172.718 135.793 172.503 136.75L171.218 142.793C171.189 142.936 171.118 143.057 171.003 143.157C170.903 143.243 170.782 143.286 170.639 143.286H169.568C169.425 143.286 169.311 143.243 169.225 143.157C169.153 143.057 169.132 142.936 169.161 142.793L170.425 136.857C170.653 135.8 170.639 135.007 170.382 134.479C170.139 133.936 169.511 133.664 168.496 133.664C167.511 133.664 166.668 133.95 165.968 134.521C165.282 135.079 164.832 135.857 164.618 136.857L163.375 142.793C163.346 142.936 163.275 143.057 163.161 143.157C163.061 143.243 162.939 143.286 162.796 143.286H161.725ZM178.127 143.286C177.184 143.286 176.484 143.136 176.027 142.836C175.57 142.521 175.299 142.086 175.213 141.529C175.142 140.957 175.184 140.286 175.342 139.514L176.542 133.857H174.87C174.727 133.857 174.62 133.814 174.549 133.729C174.477 133.629 174.456 133.507 174.484 133.364L174.634 132.636C174.663 132.493 174.734 132.379 174.849 132.293C174.963 132.193 175.092 132.143 175.234 132.143H176.906L177.677 128.564C177.706 128.421 177.77 128.307 177.87 128.221C177.984 128.121 178.113 128.071 178.256 128.071H179.263C179.406 128.071 179.513 128.121 179.584 128.221C179.656 128.307 179.677 128.421 179.649 128.564L178.877 132.143H181.556C181.699 132.143 181.806 132.193 181.877 132.293C181.949 132.379 181.97 132.493 181.942 132.636L181.77 133.364C181.742 133.507 181.67 133.629 181.556 133.729C181.456 133.814 181.334 133.857 181.192 133.857H178.534L177.356 139.364C177.27 139.807 177.213 140.193 177.184 140.521C177.156 140.85 177.227 141.1 177.399 141.271C177.57 141.443 177.892 141.529 178.363 141.529H179.777C179.92 141.529 180.02 141.579 180.077 141.679C180.149 141.764 180.17 141.879 180.142 142.021L179.992 142.793C179.963 142.936 179.892 143.057 179.777 143.157C179.677 143.243 179.549 143.286 179.392 143.286H178.127ZM181.873 143.286C181.73 143.286 181.616 143.243 181.53 143.157C181.459 143.057 181.437 142.936 181.466 142.793L184.509 128.564C184.537 128.421 184.601 128.307 184.701 128.221C184.816 128.121 184.944 128.071 185.087 128.071H186.18C186.323 128.071 186.43 128.121 186.501 128.221C186.573 128.307 186.594 128.421 186.566 128.564L185.494 133.557C185.937 133.071 186.444 132.679 187.016 132.379C187.601 132.079 188.316 131.929 189.159 131.929C190.13 131.929 190.909 132.136 191.494 132.55C192.094 132.95 192.501 133.514 192.716 134.243C192.93 134.957 192.93 135.793 192.716 136.75L191.43 142.793C191.401 142.936 191.33 143.057 191.216 143.157C191.116 143.243 190.994 143.286 190.851 143.286H189.759C189.616 143.286 189.501 143.243 189.416 143.157C189.344 143.057 189.323 142.936 189.351 142.793L190.616 136.857C190.83 135.857 190.787 135.079 190.487 134.521C190.187 133.95 189.566 133.664 188.623 133.664C188.037 133.664 187.48 133.793 186.951 134.05C186.423 134.293 185.966 134.657 185.58 135.143C185.209 135.614 184.944 136.186 184.787 136.857L183.544 142.793C183.516 142.936 183.444 143.057 183.33 143.157C183.23 143.243 183.109 143.286 182.966 143.286H181.873ZM197.995 143.5C197.195 143.5 196.531 143.4 196.002 143.2C195.474 143 195.059 142.757 194.759 142.471C194.459 142.186 194.252 141.9 194.138 141.614C194.038 141.329 193.995 141.1 194.009 140.929C194.038 140.771 194.109 140.65 194.224 140.564C194.352 140.479 194.474 140.436 194.588 140.436H195.552C195.624 140.436 195.688 140.45 195.745 140.479C195.802 140.493 195.852 140.55 195.895 140.65C196.038 140.85 196.202 141.05 196.388 141.25C196.574 141.45 196.817 141.614 197.117 141.743C197.431 141.871 197.845 141.936 198.359 141.936C199.074 141.936 199.695 141.8 200.224 141.529C200.767 141.243 201.095 140.829 201.209 140.286C201.281 139.929 201.238 139.643 201.081 139.429C200.924 139.214 200.624 139.021 200.181 138.85C199.738 138.679 199.102 138.5 198.274 138.314C197.459 138.114 196.831 137.871 196.388 137.586C195.959 137.286 195.681 136.936 195.552 136.536C195.438 136.121 195.431 135.657 195.531 135.143C195.659 134.614 195.924 134.107 196.324 133.621C196.738 133.121 197.281 132.714 197.952 132.4C198.638 132.086 199.438 131.929 200.352 131.929C201.095 131.929 201.709 132.021 202.195 132.207C202.695 132.393 203.088 132.629 203.374 132.914C203.659 133.186 203.852 133.457 203.952 133.729C204.067 134 204.109 134.229 204.081 134.414C204.067 134.557 203.995 134.679 203.867 134.779C203.752 134.864 203.631 134.907 203.502 134.907H202.624C202.524 134.907 202.438 134.886 202.367 134.843C202.309 134.8 202.267 134.75 202.238 134.693C202.124 134.507 201.988 134.321 201.831 134.136C201.688 133.95 201.474 133.8 201.188 133.686C200.917 133.557 200.531 133.493 200.031 133.493C199.317 133.493 198.745 133.643 198.317 133.943C197.902 134.243 197.645 134.621 197.545 135.079C197.488 135.35 197.509 135.593 197.609 135.807C197.724 136.021 197.981 136.214 198.381 136.386C198.795 136.557 199.417 136.743 200.245 136.943C201.145 137.129 201.831 137.379 202.302 137.693C202.788 138.007 203.102 138.371 203.245 138.786C203.388 139.2 203.402 139.679 203.288 140.221C203.174 140.821 202.881 141.371 202.409 141.871C201.952 142.371 201.352 142.771 200.609 143.071C199.867 143.357 198.995 143.5 197.995 143.5Z" fill="#0B1956"/>
<path d="M300.579 81.1429C300.436 81.1429 300.329 81.1 300.257 81.0143C300.186 80.9143 300.164 80.7929 300.193 80.65L303.171 66.6571C303.2 66.5 303.264 66.3786 303.364 66.2929C303.479 66.1929 303.607 66.1429 303.75 66.1429H312.514C312.671 66.1429 312.779 66.1929 312.836 66.2929C312.907 66.3786 312.929 66.5 312.9 66.6571L312.729 67.5143C312.7 67.6714 312.629 67.7929 312.514 67.8786C312.414 67.9643 312.286 68.0071 312.129 68.0071H304.971L303.9 73H310.629C310.786 73 310.893 73.05 310.95 73.15C311.021 73.2357 311.043 73.3571 311.014 73.5143L310.843 74.3714C310.829 74.5143 310.764 74.6357 310.65 74.7357C310.536 74.8214 310.4 74.8643 310.243 74.8643H303.514L302.271 80.65C302.243 80.7929 302.171 80.9143 302.057 81.0143C301.957 81.1 301.829 81.1429 301.671 81.1429H300.579ZM312.362 81.1429C312.22 81.1429 312.105 81.1 312.02 81.0143C311.948 80.9143 311.927 80.7929 311.955 80.65L314.12 70.4929C314.148 70.35 314.22 70.2357 314.334 70.15C314.448 70.05 314.577 70 314.72 70H315.748C315.891 70 315.991 70.05 316.048 70.15C316.12 70.2357 316.141 70.35 316.112 70.4929L313.97 80.65C313.941 80.7929 313.87 80.9143 313.755 81.0143C313.655 81.1 313.534 81.1429 313.391 81.1429H312.362ZM314.998 67.9214C314.855 67.9214 314.748 67.8786 314.677 67.7929C314.605 67.6929 314.577 67.5714 314.591 67.4286L314.87 66.2714C314.898 66.1286 314.962 66.0143 315.062 65.9286C315.177 65.8286 315.305 65.7786 315.448 65.7786H316.777C316.934 65.7786 317.048 65.8286 317.12 65.9286C317.205 66.0143 317.234 66.1286 317.205 66.2714L316.948 67.4286C316.92 67.5714 316.848 67.6929 316.734 67.7929C316.62 67.8786 316.491 67.9214 316.348 67.9214H314.998ZM320.123 85.8571C319.195 85.8571 318.445 85.7286 317.873 85.4714C317.302 85.2143 316.866 84.9 316.566 84.5286C316.266 84.1714 316.073 83.8071 315.987 83.4357C315.887 83.0786 315.859 82.7929 315.902 82.5786C315.93 82.4357 315.995 82.3143 316.095 82.2143C316.18 82.1143 316.287 82.0643 316.416 82.0643H317.53C317.659 82.0643 317.759 82.0929 317.83 82.15C317.902 82.2071 317.945 82.3286 317.959 82.5143C317.973 82.7286 318.03 82.9643 318.13 83.2214C318.245 83.4929 318.459 83.7214 318.773 83.9071C319.102 84.1071 319.58 84.2071 320.209 84.2071C320.795 84.2071 321.345 84.1143 321.859 83.9286C322.387 83.7571 322.837 83.4429 323.209 82.9857C323.595 82.5429 323.873 81.9286 324.045 81.1429L324.345 79.6857C323.902 80.1286 323.402 80.5 322.845 80.8C322.287 81.0857 321.595 81.2286 320.766 81.2286C319.937 81.2286 319.252 81.0929 318.709 80.8214C318.18 80.5357 317.78 80.1571 317.509 79.6857C317.237 79.2 317.066 78.65 316.995 78.0357C316.937 77.4214 316.959 76.7786 317.059 76.1071C317.087 75.8929 317.123 75.7 317.166 75.5286C317.209 75.3429 317.259 75.1429 317.316 74.9286C317.502 74.2571 317.737 73.6214 318.023 73.0214C318.323 72.4071 318.695 71.8571 319.137 71.3714C319.58 70.8714 320.109 70.4857 320.723 70.2143C321.337 69.9286 322.059 69.7857 322.887 69.7857C323.745 69.7857 324.437 69.95 324.966 70.2786C325.509 70.5929 325.902 70.9786 326.145 71.4357L326.337 70.5143C326.366 70.3714 326.437 70.25 326.552 70.15C326.666 70.05 326.802 70 326.959 70H327.923C328.066 70 328.173 70.05 328.245 70.15C328.33 70.25 328.359 70.3714 328.33 70.5143L326.123 80.9071C325.98 81.6214 325.773 82.2786 325.502 82.8786C325.23 83.4929 324.866 84.0214 324.409 84.4643C323.966 84.9071 323.395 85.25 322.695 85.4929C321.995 85.7357 321.137 85.8571 320.123 85.8571ZM321.195 79.5143C321.895 79.5143 322.509 79.35 323.037 79.0214C323.566 78.6929 324.002 78.2786 324.345 77.7786C324.702 77.2786 324.945 76.7714 325.073 76.2571C325.116 76.0571 325.166 75.8143 325.223 75.5286C325.295 75.2286 325.345 74.9786 325.373 74.7786C325.459 74.2643 325.459 73.7571 325.373 73.2571C325.287 72.7571 325.066 72.3429 324.709 72.0143C324.352 71.6857 323.816 71.5214 323.102 71.5214C322.43 71.5214 321.845 71.6857 321.345 72.0143C320.845 72.3286 320.43 72.75 320.102 73.2786C319.773 73.7929 319.523 74.35 319.352 74.95C319.309 75.15 319.266 75.3429 319.223 75.5286C319.18 75.7 319.145 75.8857 319.116 76.0857C319.016 76.6857 318.995 77.25 319.052 77.7786C319.109 78.2929 319.302 78.7143 319.63 79.0429C319.973 79.3571 320.495 79.5143 321.195 79.5143ZM329.246 81.1429C329.103 81.1429 328.989 81.1 328.903 81.0143C328.832 80.9143 328.81 80.7929 328.839 80.65L331.003 70.4929C331.032 70.35 331.103 70.2357 331.217 70.15C331.332 70.05 331.46 70 331.603 70H332.567C332.71 70 332.817 70.05 332.889 70.15C332.96 70.2357 332.982 70.35 332.953 70.4929L332.803 71.2429C333.089 70.9429 333.374 70.6857 333.66 70.4714C333.96 70.2571 334.296 70.0929 334.667 69.9786C335.039 69.85 335.474 69.7857 335.974 69.7857C336.789 69.7857 337.474 69.9571 338.032 70.3C338.589 70.6286 338.96 71.1143 339.146 71.7571C339.603 71.1571 340.139 70.6786 340.753 70.3214C341.382 69.9643 342.11 69.7857 342.939 69.7857C343.696 69.7857 344.353 69.9571 344.91 70.3C345.482 70.6429 345.882 71.1643 346.11 71.8643C346.353 72.55 346.367 73.4143 346.153 74.4571L344.824 80.65C344.796 80.7929 344.724 80.9143 344.61 81.0143C344.51 81.1 344.389 81.1429 344.246 81.1429H343.239C343.096 81.1429 342.989 81.1 342.917 81.0143C342.846 80.9143 342.824 80.7929 342.853 80.65L344.117 74.65C344.289 73.85 344.324 73.2214 344.224 72.7643C344.124 72.3071 343.91 71.9857 343.582 71.8C343.267 71.6143 342.889 71.5214 342.446 71.5214C342.06 71.5214 341.639 71.6143 341.182 71.8C340.739 71.9857 340.324 72.3071 339.939 72.7643C339.567 73.2214 339.296 73.85 339.124 74.65L337.839 80.65C337.81 80.7929 337.739 80.9143 337.624 81.0143C337.524 81.1 337.403 81.1429 337.26 81.1429H336.253C336.11 81.1429 335.996 81.1 335.91 81.0143C335.839 80.9143 335.817 80.7929 335.846 80.65L337.132 74.65C337.303 73.85 337.332 73.2214 337.217 72.7643C337.103 72.3071 336.889 71.9857 336.574 71.8C336.26 71.6143 335.882 71.5214 335.439 71.5214C335.067 71.5214 334.653 71.6143 334.196 71.8C333.753 71.9857 333.339 72.3071 332.953 72.7643C332.582 73.2214 332.31 73.8429 332.139 74.6286L330.853 80.65C330.824 80.7929 330.753 80.9143 330.639 81.0143C330.539 81.1 330.417 81.1429 330.274 81.1429H329.246ZM351.374 81.3571C350.588 81.3571 349.938 81.2214 349.424 80.95C348.91 80.6643 348.517 80.2857 348.245 79.8143C347.974 79.3286 347.803 78.7786 347.731 78.1643C347.674 77.55 347.695 76.9 347.795 76.2143C347.838 75.9857 347.881 75.7714 347.924 75.5714C347.967 75.3714 348.017 75.1571 348.074 74.9286C348.245 74.2571 348.474 73.6214 348.76 73.0214C349.045 72.4071 349.403 71.8571 349.831 71.3714C350.274 70.8714 350.803 70.4857 351.417 70.2143C352.045 69.9286 352.774 69.7857 353.603 69.7857C354.517 69.7857 355.203 69.9429 355.66 70.2571C356.131 70.5571 356.495 70.9286 356.753 71.3714L356.924 70.4929C356.953 70.35 357.017 70.2357 357.117 70.15C357.231 70.05 357.367 70 357.524 70H358.488C358.631 70 358.738 70.05 358.81 70.15C358.895 70.2357 358.924 70.35 358.895 70.4929L356.731 80.65C356.703 80.7929 356.631 80.9143 356.517 81.0143C356.417 81.1 356.295 81.1429 356.153 81.1429H355.167C355.024 81.1429 354.917 81.1 354.845 81.0143C354.774 80.9143 354.753 80.7929 354.781 80.65L354.974 79.75C354.531 80.2071 354.045 80.5929 353.517 80.9071C353.003 81.2071 352.288 81.3571 351.374 81.3571ZM351.824 79.6214C352.538 79.6214 353.153 79.4571 353.667 79.1286C354.195 78.8 354.624 78.3857 354.953 77.8857C355.281 77.3714 355.51 76.85 355.638 76.3214C355.695 76.0929 355.753 75.8214 355.81 75.5071C355.881 75.1786 355.938 74.9 355.981 74.6714C356.095 74.1714 356.103 73.6786 356.003 73.1929C355.917 72.7071 355.695 72.3071 355.338 71.9929C354.995 71.6786 354.474 71.5214 353.774 71.5214C353.103 71.5214 352.524 71.6857 352.038 72.0143C351.567 72.3286 351.174 72.75 350.86 73.2786C350.56 73.7929 350.317 74.35 350.131 74.95C350.074 75.1643 350.024 75.3714 349.981 75.5714C349.938 75.7714 349.903 75.9786 349.874 76.1929C349.788 76.7929 349.767 77.3571 349.81 77.8857C349.853 78.4 350.031 78.8214 350.345 79.15C350.66 79.4643 351.153 79.6214 351.824 79.6214Z" fill="#0B1956"/>
<path d="M453.264 81.1429C453.079 81.1429 452.957 81.0714 452.9 80.9286C452.829 80.7714 452.836 80.6214 452.921 80.4786L461.171 66.6143C461.257 66.4714 461.357 66.3571 461.471 66.2714C461.6 66.1857 461.757 66.1429 461.943 66.1429H463.571C463.757 66.1429 463.893 66.1857 463.979 66.2714C464.079 66.3571 464.136 66.4714 464.15 66.6143L466.507 80.4786C466.55 80.6929 466.529 80.8571 466.443 80.9714C466.357 81.0857 466.243 81.1429 466.1 81.1429H465.007C464.85 81.1429 464.729 81.1071 464.643 81.0357C464.557 80.95 464.5 80.8286 464.471 80.6714L463.914 77.7357H456.886L455.043 80.7786C454.971 80.8786 454.886 80.9643 454.786 81.0357C454.686 81.1071 454.564 81.1429 454.421 81.1429H453.264ZM457.893 75.8929H463.7L462.393 68.2857L457.893 75.8929ZM468.347 81.1429C468.204 81.1429 468.09 81.1 468.004 81.0143C467.933 80.9143 467.911 80.7929 467.94 80.65L470.104 70.4929C470.133 70.35 470.204 70.2357 470.318 70.15C470.433 70.05 470.561 70 470.704 70H471.711C471.854 70 471.961 70.05 472.033 70.15C472.104 70.2357 472.125 70.35 472.097 70.4929L471.883 71.4357C472.325 70.95 472.861 70.5571 473.49 70.2571C474.118 69.9429 474.833 69.7857 475.633 69.7857C476.661 69.7857 477.468 69.9929 478.054 70.4071C478.64 70.8071 479.018 71.3714 479.19 72.1C479.361 72.8143 479.34 73.65 479.125 74.6071L477.84 80.65C477.811 80.7929 477.74 80.9143 477.625 81.0143C477.525 81.1 477.404 81.1429 477.261 81.1429H476.19C476.047 81.1429 475.933 81.1 475.847 81.0143C475.775 80.9143 475.754 80.7929 475.783 80.65L477.047 74.7143C477.275 73.6571 477.261 72.8643 477.004 72.3357C476.761 71.7929 476.133 71.5214 475.118 71.5214C474.133 71.5214 473.29 71.8071 472.59 72.3786C471.904 72.9357 471.454 73.7143 471.24 74.7143L469.997 80.65C469.968 80.7929 469.897 80.9143 469.783 81.0143C469.683 81.1 469.561 81.1429 469.418 81.1429H468.347ZM484.492 81.3571C483.706 81.3571 483.049 81.2214 482.521 80.95C481.992 80.6643 481.585 80.2857 481.299 79.8143C481.014 79.3286 480.835 78.7786 480.764 78.1643C480.692 77.55 480.706 76.9 480.806 76.2143C480.849 75.9857 480.892 75.7714 480.935 75.5714C480.978 75.3714 481.028 75.1571 481.085 74.9286C481.256 74.2571 481.492 73.6214 481.792 73.0214C482.092 72.4071 482.464 71.8571 482.906 71.3714C483.349 70.8714 483.878 70.4857 484.492 70.2143C485.121 69.9286 485.842 69.7857 486.656 69.7857C487.542 69.7857 488.235 69.9357 488.735 70.2357C489.249 70.5357 489.628 70.9071 489.871 71.35L490.942 66.4214C490.971 66.2786 491.035 66.1643 491.135 66.0786C491.249 65.9786 491.378 65.9286 491.521 65.9286H492.549C492.706 65.9286 492.821 65.9786 492.892 66.0786C492.964 66.1643 492.985 66.2786 492.956 66.4214L489.914 80.65C489.885 80.7929 489.821 80.9143 489.721 81.0143C489.621 81.1 489.492 81.1429 489.335 81.1429H488.371C488.228 81.1429 488.114 81.1 488.028 81.0143C487.956 80.9143 487.935 80.7929 487.964 80.65L488.156 79.75C487.714 80.2071 487.214 80.5929 486.656 80.9071C486.114 81.2071 485.392 81.3571 484.492 81.3571ZM484.921 79.6214C485.635 79.6214 486.264 79.4571 486.806 79.1286C487.349 78.8 487.785 78.3857 488.114 77.8857C488.456 77.3714 488.692 76.85 488.821 76.3214C488.892 76.0929 488.956 75.8214 489.014 75.5071C489.085 75.1786 489.142 74.9 489.185 74.6714C489.285 74.1714 489.278 73.6786 489.164 73.1929C489.064 72.7071 488.828 72.3071 488.456 71.9929C488.099 71.6786 487.571 71.5214 486.871 71.5214C486.199 71.5214 485.614 71.6857 485.114 72.0143C484.628 72.3286 484.221 72.75 483.892 73.2786C483.578 73.7929 483.328 74.35 483.142 74.95C483.085 75.1643 483.035 75.3714 482.992 75.5714C482.949 75.7714 482.914 75.9786 482.885 76.1929C482.799 76.7929 482.785 77.3571 482.842 77.8857C482.914 78.4 483.106 78.8214 483.421 79.15C483.749 79.4643 484.249 79.6214 484.921 79.6214ZM492.994 81.1429C492.851 81.1429 492.737 81.1 492.651 81.0143C492.58 80.9143 492.558 80.7929 492.587 80.65L494.751 70.5143C494.78 70.3714 494.851 70.25 494.965 70.15C495.08 70.05 495.208 70 495.351 70H496.337C496.48 70 496.587 70.05 496.658 70.15C496.744 70.25 496.772 70.3714 496.744 70.5143L496.53 71.4571C496.858 70.9714 497.294 70.6071 497.837 70.3643C498.394 70.1214 499.037 70 499.765 70H500.687C500.83 70 500.93 70.05 500.987 70.15C501.058 70.2357 501.08 70.35 501.051 70.4929L500.88 71.3714C500.851 71.5143 500.78 71.6286 500.665 71.7143C500.565 71.8 500.437 71.8429 500.28 71.8429H499.015C498.244 71.8429 497.587 72.0714 497.044 72.5286C496.501 72.9714 496.144 73.5786 495.972 74.35L494.644 80.65C494.615 80.7929 494.544 80.9143 494.43 81.0143C494.315 81.1 494.187 81.1429 494.044 81.1429H492.994ZM504.755 81.3571C503.712 81.3571 502.855 81.15 502.183 80.7357C501.512 80.3214 501.04 79.75 500.769 79.0214C500.512 78.2786 500.462 77.4357 500.619 76.4929C500.647 76.25 500.705 75.9429 500.79 75.5714C500.876 75.1857 500.955 74.8786 501.026 74.65C501.255 73.6929 501.626 72.85 502.14 72.1214C502.655 71.3929 503.312 70.8214 504.112 70.4071C504.912 69.9929 505.847 69.7857 506.919 69.7857C507.976 69.7857 508.84 69.9929 509.512 70.4071C510.183 70.8214 510.655 71.3929 510.926 72.1214C511.197 72.85 511.247 73.6929 511.076 74.65C511.033 74.8786 510.969 75.1857 510.883 75.5714C510.812 75.9429 510.747 76.25 510.69 76.4929C510.447 77.4357 510.069 78.2786 509.555 79.0214C509.055 79.75 508.405 80.3214 507.605 80.7357C506.805 81.15 505.855 81.3571 504.755 81.3571ZM504.84 79.7071C505.74 79.7071 506.533 79.4286 507.219 78.8714C507.905 78.3 508.383 77.4714 508.655 76.3857C508.712 76.1714 508.776 75.9 508.847 75.5714C508.919 75.2429 508.976 74.9714 509.019 74.7571C509.205 73.6714 509.112 72.85 508.74 72.2929C508.369 71.7214 507.733 71.4357 506.833 71.4357C505.947 71.4357 505.162 71.7214 504.476 72.2929C503.79 72.85 503.312 73.6714 503.04 74.7571C502.983 74.9714 502.919 75.2429 502.847 75.5714C502.776 75.9 502.726 76.1714 502.697 76.3857C502.497 77.4714 502.576 78.3 502.933 78.8714C503.305 79.4286 503.94 79.7071 504.84 79.7071ZM512.367 81.1429C512.225 81.1429 512.11 81.1 512.025 81.0143C511.953 80.9143 511.932 80.7929 511.96 80.65L514.125 70.4929C514.153 70.35 514.225 70.2357 514.339 70.15C514.453 70.05 514.582 70 514.725 70H515.753C515.896 70 515.996 70.05 516.053 70.15C516.125 70.2357 516.146 70.35 516.117 70.4929L513.975 80.65C513.946 80.7929 513.875 80.9143 513.76 81.0143C513.66 81.1 513.539 81.1429 513.396 81.1429H512.367ZM515.003 67.9214C514.86 67.9214 514.753 67.8786 514.682 67.7929C514.61 67.6929 514.582 67.5714 514.596 67.4286L514.875 66.2714C514.903 66.1286 514.967 66.0143 515.067 65.9286C515.182 65.8286 515.31 65.7786 515.453 65.7786H516.782C516.939 65.7786 517.053 65.8286 517.125 65.9286C517.21 66.0143 517.239 66.1286 517.21 66.2714L516.953 67.4286C516.925 67.5714 516.853 67.6929 516.739 67.7929C516.625 67.8786 516.496 67.9214 516.353 67.9214H515.003ZM520.728 81.3571C519.942 81.3571 519.285 81.2214 518.757 80.95C518.228 80.6643 517.821 80.2857 517.535 79.8143C517.25 79.3286 517.071 78.7786 517 78.1643C516.928 77.55 516.942 76.9 517.042 76.2143C517.085 75.9857 517.128 75.7714 517.171 75.5714C517.214 75.3714 517.264 75.1571 517.321 74.9286C517.492 74.2571 517.728 73.6214 518.028 73.0214C518.328 72.4071 518.7 71.8571 519.142 71.3714C519.585 70.8714 520.114 70.4857 520.728 70.2143C521.357 69.9286 522.078 69.7857 522.892 69.7857C523.778 69.7857 524.471 69.9357 524.971 70.2357C525.485 70.5357 525.864 70.9071 526.107 71.35L527.178 66.4214C527.207 66.2786 527.271 66.1643 527.371 66.0786C527.485 65.9786 527.614 65.9286 527.757 65.9286H528.785C528.942 65.9286 529.057 65.9786 529.128 66.0786C529.2 66.1643 529.221 66.2786 529.192 66.4214L526.15 80.65C526.121 80.7929 526.057 80.9143 525.957 81.0143C525.857 81.1 525.728 81.1429 525.571 81.1429H524.607C524.464 81.1429 524.35 81.1 524.264 81.0143C524.192 80.9143 524.171 80.7929 524.2 80.65L524.392 79.75C523.95 80.2071 523.45 80.5929 522.892 80.9071C522.35 81.2071 521.628 81.3571 520.728 81.3571ZM521.157 79.6214C521.871 79.6214 522.5 79.4571 523.042 79.1286C523.585 78.8 524.021 78.3857 524.35 77.8857C524.692 77.3714 524.928 76.85 525.057 76.3214C525.128 76.0929 525.192 75.8214 525.25 75.5071C525.321 75.1786 525.378 74.9 525.421 74.6714C525.521 74.1714 525.514 73.6786 525.4 73.1929C525.3 72.7071 525.064 72.3071 524.692 71.9929C524.335 71.6786 523.807 71.5214 523.107 71.5214C522.435 71.5214 521.85 71.6857 521.35 72.0143C520.864 72.3286 520.457 72.75 520.128 73.2786C519.814 73.7929 519.564 74.35 519.378 74.95C519.321 75.1643 519.271 75.3714 519.228 75.5714C519.185 75.7714 519.15 75.9786 519.121 76.1929C519.035 76.7929 519.021 77.3571 519.078 77.8857C519.15 78.4 519.342 78.8214 519.657 79.15C519.985 79.4643 520.485 79.6214 521.157 79.6214Z" fill="#0B1956"/>
<path d="M613.464 81.1429C613.321 81.1429 613.207 81.1 613.121 81.0143C613.05 80.9143 613.029 80.7929 613.057 80.65L615.221 70.4929C615.25 70.35 615.321 70.2357 615.436 70.15C615.55 70.05 615.679 70 615.821 70H616.85C616.993 70 617.093 70.05 617.15 70.15C617.221 70.2357 617.243 70.35 617.214 70.4929L615.071 80.65C615.043 80.7929 614.971 80.9143 614.857 81.0143C614.757 81.1 614.636 81.1429 614.493 81.1429H613.464ZM616.1 67.9214C615.957 67.9214 615.85 67.8786 615.779 67.7929C615.707 67.6929 615.679 67.5714 615.693 67.4286L615.971 66.2714C616 66.1286 616.064 66.0143 616.164 65.9286C616.279 65.8286 616.407 65.7786 616.55 65.7786H617.879C618.036 65.7786 618.15 65.8286 618.221 65.9286C618.307 66.0143 618.336 66.1286 618.307 66.2714L618.05 67.4286C618.021 67.5714 617.95 67.6929 617.836 67.7929C617.721 67.8786 617.593 67.9214 617.45 67.9214H616.1ZM623.432 81.3571C622.589 81.3571 621.825 81.2429 621.139 81.0143C620.454 80.7714 619.889 80.4071 619.446 79.9214C619.004 79.4357 618.696 78.8214 618.525 78.0786C618.368 77.3357 618.375 76.4643 618.546 75.4643C618.661 74.8357 618.782 74.2357 618.911 73.6643C619.039 73.0786 619.182 72.4714 619.339 71.8429C619.811 69.8571 620.639 68.3786 621.825 67.4071C623.025 66.4214 624.525 65.9286 626.325 65.9286C627.182 65.9286 627.946 66.05 628.618 66.2929C629.304 66.5357 629.868 66.9071 630.311 67.4071C630.768 67.9071 631.075 68.5214 631.232 69.25C631.389 69.9786 631.382 70.8429 631.211 71.8429C631.096 72.4714 630.975 73.0786 630.846 73.6643C630.718 74.2357 630.582 74.8357 630.439 75.4643C629.954 77.4786 629.111 78.9643 627.911 79.9214C626.725 80.8786 625.232 81.3571 623.432 81.3571ZM623.518 79.5357C624.646 79.5357 625.639 79.2071 626.496 78.55C627.354 77.8929 627.961 76.8286 628.318 75.3571C628.475 74.7143 628.604 74.1429 628.704 73.6429C628.818 73.1286 628.932 72.5571 629.046 71.9286C629.318 70.4571 629.204 69.3929 628.704 68.7357C628.218 68.0786 627.396 67.75 626.239 67.75C625.096 67.75 624.104 68.0786 623.261 68.7357C622.418 69.3929 621.818 70.4571 621.461 71.9286C621.304 72.5571 621.168 73.1286 621.054 73.6429C620.939 74.1429 620.825 74.7143 620.711 75.3571C620.454 76.8286 620.561 77.8929 621.032 78.55C621.518 79.2071 622.346 79.5357 623.518 79.5357ZM636.82 81.3571C635.577 81.3571 634.563 81.1714 633.777 80.8C632.991 80.4286 632.42 79.9357 632.063 79.3214C631.72 78.7071 631.598 78.0571 631.698 77.3714C631.713 77.2571 631.763 77.1571 631.848 77.0714C631.934 76.9714 632.041 76.9214 632.17 76.9214H633.348C633.505 76.9214 633.613 76.9643 633.67 77.05C633.741 77.1357 633.791 77.2357 633.82 77.35C633.82 77.6929 633.92 78.0357 634.12 78.3786C634.334 78.7071 634.663 78.9857 635.105 79.2143C635.563 79.4286 636.163 79.5357 636.905 79.5357C638.134 79.5357 639.098 79.3214 639.798 78.8929C640.498 78.45 640.927 77.8643 641.084 77.1357C641.198 76.6357 641.134 76.2357 640.891 75.9357C640.648 75.6214 640.234 75.3429 639.648 75.1C639.077 74.8571 638.32 74.5929 637.377 74.3071C636.405 74.0071 635.62 73.6643 635.02 73.2786C634.42 72.8929 634.013 72.4214 633.798 71.8643C633.584 71.2929 633.563 70.6 633.734 69.7857C633.991 68.6286 634.62 67.7 635.62 67C636.62 66.2857 637.941 65.9286 639.584 65.9286C640.455 65.9286 641.205 66.05 641.834 66.2929C642.463 66.5214 642.977 66.8357 643.377 67.2357C643.777 67.6214 644.048 68.0429 644.191 68.5C644.348 68.9429 644.391 69.3786 644.32 69.8071C644.305 69.9071 644.263 70.0071 644.191 70.1071C644.12 70.1929 644.005 70.2357 643.848 70.2357H642.627C642.541 70.2357 642.448 70.2071 642.348 70.15C642.248 70.0929 642.191 69.9857 642.177 69.8286C642.22 69.2429 641.991 68.75 641.491 68.35C640.991 67.95 640.327 67.75 639.498 67.75C638.57 67.75 637.763 67.9286 637.077 68.2857C636.405 68.6429 635.984 69.2 635.813 69.9571C635.713 70.4429 635.763 70.85 635.963 71.1786C636.163 71.4929 636.527 71.7714 637.055 72.0143C637.584 72.2571 638.298 72.5143 639.198 72.7857C640.27 73.1 641.127 73.45 641.77 73.8357C642.413 74.2214 642.855 74.6929 643.098 75.25C643.341 75.7929 643.37 76.4714 643.184 77.2857C642.913 78.6286 642.22 79.6429 641.105 80.3286C640.005 81.0143 638.577 81.3571 636.82 81.3571Z" fill="#0B1956"/>
<circle cx="71.7143" cy="140.429" r="24.2857" fill="#0B1956"/>
<path fill-rule="evenodd" clip-rule="evenodd" d="M72.0262 124.714C72.5929 124.714 73.0523 125.174 73.0523 125.74V138.396H86.3924C86.9591 138.396 87.4185 138.856 87.4185 139.423C87.4185 139.989 86.9591 140.449 86.3924 140.449H71V125.74C71 125.174 71.4594 124.714 72.0262 124.714Z" fill="#FAF3EB"/>
<path d="M114.864 83.2857C114.707 83.2857 114.593 83.2428 114.521 83.1571C114.45 83.0571 114.429 82.9357 114.457 82.7928L117.457 68.7786C117.486 68.6357 117.55 68.5214 117.65 68.4357C117.764 68.3357 117.893 68.2857 118.036 68.2857H119.193C119.336 68.2857 119.443 68.3357 119.514 68.4357C119.6 68.5214 119.629 68.6357 119.6 68.7786L116.6 82.7928C116.571 82.9357 116.5 83.0571 116.386 83.1571C116.286 83.2428 116.164 83.2857 116.021 83.2857H114.864ZM119.952 83.2857C119.809 83.2857 119.695 83.2428 119.609 83.1571C119.537 83.0571 119.516 82.9357 119.545 82.7928L121.709 72.6357C121.737 72.4928 121.809 72.3786 121.923 72.2928C122.037 72.1928 122.166 72.1428 122.309 72.1428H123.316C123.459 72.1428 123.566 72.1928 123.637 72.2928C123.709 72.3786 123.73 72.4928 123.702 72.6357L123.487 73.5786C123.93 73.0928 124.466 72.7 125.095 72.4C125.723 72.0857 126.437 71.9286 127.237 71.9286C128.266 71.9286 129.073 72.1357 129.659 72.55C130.245 72.95 130.623 73.5143 130.795 74.2428C130.966 74.9571 130.945 75.7928 130.73 76.75L129.445 82.7928C129.416 82.9357 129.345 83.0571 129.23 83.1571C129.13 83.2428 129.009 83.2857 128.866 83.2857H127.795C127.652 83.2857 127.537 83.2428 127.452 83.1571C127.38 83.0571 127.359 82.9357 127.387 82.7928L128.652 76.8571C128.88 75.8 128.866 75.0071 128.609 74.4786C128.366 73.9357 127.737 73.6643 126.723 73.6643C125.737 73.6643 124.895 73.95 124.195 74.5214C123.509 75.0786 123.059 75.8571 122.845 76.8571L121.602 82.7928C121.573 82.9357 121.502 83.0571 121.387 83.1571C121.287 83.2428 121.166 83.2857 121.023 83.2857H119.952ZM136.097 83.5C135.311 83.5 134.654 83.3643 134.126 83.0928C133.597 82.8071 133.19 82.4286 132.904 81.9571C132.618 81.4714 132.44 80.9214 132.368 80.3071C132.297 79.6928 132.311 79.0428 132.411 78.3571C132.454 78.1286 132.497 77.9143 132.54 77.7143C132.583 77.5143 132.633 77.3 132.69 77.0714C132.861 76.4 133.097 75.7643 133.397 75.1643C133.697 74.55 134.068 74 134.511 73.5143C134.954 73.0143 135.483 72.6286 136.097 72.3571C136.726 72.0714 137.447 71.9286 138.261 71.9286C139.147 71.9286 139.84 72.0786 140.34 72.3786C140.854 72.6786 141.233 73.05 141.476 73.4928L142.547 68.5643C142.576 68.4214 142.64 68.3071 142.74 68.2214C142.854 68.1214 142.983 68.0714 143.126 68.0714H144.154C144.311 68.0714 144.426 68.1214 144.497 68.2214C144.568 68.3071 144.59 68.4214 144.561 68.5643L141.518 82.7928C141.49 82.9357 141.426 83.0571 141.326 83.1571C141.226 83.2428 141.097 83.2857 140.94 83.2857H139.976C139.833 83.2857 139.718 83.2428 139.633 83.1571C139.561 83.0571 139.54 82.9357 139.568 82.7928L139.761 81.8928C139.318 82.35 138.818 82.7357 138.261 83.05C137.718 83.35 136.997 83.5 136.097 83.5ZM136.526 81.7643C137.24 81.7643 137.868 81.6 138.411 81.2714C138.954 80.9428 139.39 80.5286 139.718 80.0286C140.061 79.5143 140.297 78.9928 140.426 78.4643C140.497 78.2357 140.561 77.9643 140.618 77.65C140.69 77.3214 140.747 77.0428 140.79 76.8143C140.89 76.3143 140.883 75.8214 140.768 75.3357C140.668 74.85 140.433 74.45 140.061 74.1357C139.704 73.8214 139.176 73.6643 138.476 73.6643C137.804 73.6643 137.218 73.8286 136.718 74.1571C136.233 74.4714 135.826 74.8928 135.497 75.4214C135.183 75.9357 134.933 76.4928 134.747 77.0928C134.69 77.3071 134.64 77.5143 134.597 77.7143C134.554 77.9143 134.518 78.1214 134.49 78.3357C134.404 78.9357 134.39 79.5 134.447 80.0286C134.518 80.5428 134.711 80.9643 135.026 81.2928C135.354 81.6071 135.854 81.7643 136.526 81.7643ZM144.599 83.2857C144.456 83.2857 144.342 83.2428 144.256 83.1571C144.185 83.0571 144.163 82.9357 144.192 82.7928L146.356 72.6357C146.385 72.4928 146.456 72.3786 146.57 72.2928C146.685 72.1928 146.813 72.1428 146.956 72.1428H147.985C148.127 72.1428 148.227 72.1928 148.285 72.2928C148.356 72.3786 148.377 72.4928 148.349 72.6357L146.206 82.7928C146.177 82.9357 146.106 83.0571 145.992 83.1571C145.892 83.2428 145.77 83.2857 145.627 83.2857H144.599ZM147.235 70.0643C147.092 70.0643 146.985 70.0214 146.913 69.9357C146.842 69.8357 146.813 69.7143 146.827 69.5714L147.106 68.4143C147.135 68.2714 147.199 68.1571 147.299 68.0714C147.413 67.9714 147.542 67.9214 147.685 67.9214H149.013C149.17 67.9214 149.285 67.9714 149.356 68.0714C149.442 68.1571 149.47 68.2714 149.442 68.4143L149.185 69.5714C149.156 69.7143 149.085 69.8357 148.97 69.9357C148.856 70.0214 148.727 70.0643 148.585 70.0643H147.235ZM152.574 83.2857C152.359 83.2857 152.209 83.2357 152.124 83.1357C152.038 83.0357 151.981 82.9071 151.952 82.75L150.088 72.6786C150.059 72.4928 150.088 72.3571 150.174 72.2714C150.274 72.1857 150.395 72.1428 150.538 72.1428H151.502C151.659 72.1428 151.781 72.1786 151.867 72.25C151.952 72.3214 152.002 72.4428 152.017 72.6143L153.474 80.95L158.531 72.5071C158.574 72.4357 158.645 72.3571 158.745 72.2714C158.845 72.1857 158.974 72.1428 159.131 72.1428H160.267C160.409 72.1428 160.517 72.2071 160.588 72.3357C160.659 72.4643 160.638 72.6214 160.524 72.8071L154.438 82.75C154.338 82.9071 154.224 83.0357 154.095 83.1357C153.981 83.2357 153.809 83.2857 153.581 83.2857H152.574ZM160.561 83.2857C160.419 83.2857 160.304 83.2428 160.219 83.1571C160.147 83.0571 160.126 82.9357 160.154 82.7928L162.319 72.6357C162.347 72.4928 162.419 72.3786 162.533 72.2928C162.647 72.1928 162.776 72.1428 162.919 72.1428H163.947C164.09 72.1428 164.19 72.1928 164.247 72.2928C164.319 72.3786 164.34 72.4928 164.311 72.6357L162.169 82.7928C162.14 82.9357 162.069 83.0571 161.954 83.1571C161.854 83.2428 161.733 83.2857 161.59 83.2857H160.561ZM163.197 70.0643C163.054 70.0643 162.947 70.0214 162.876 69.9357C162.804 69.8357 162.776 69.7143 162.79 69.5714L163.069 68.4143C163.097 68.2714 163.161 68.1571 163.261 68.0714C163.376 67.9714 163.504 67.9214 163.647 67.9214H164.976C165.133 67.9214 165.247 67.9714 165.319 68.0714C165.404 68.1571 165.433 68.2714 165.404 68.4143L165.147 69.5714C165.119 69.7143 165.047 69.8357 164.933 69.9357C164.819 70.0214 164.69 70.0643 164.547 70.0643H163.197ZM168.922 83.5C168.136 83.5 167.479 83.3643 166.951 83.0928C166.422 82.8071 166.015 82.4286 165.729 81.9571C165.444 81.4714 165.265 80.9214 165.194 80.3071C165.122 79.6928 165.136 79.0428 165.236 78.3571C165.279 78.1286 165.322 77.9143 165.365 77.7143C165.408 77.5143 165.458 77.3 165.515 77.0714C165.686 76.4 165.922 75.7643 166.222 75.1643C166.522 74.55 166.894 74 167.336 73.5143C167.779 73.0143 168.308 72.6286 168.922 72.3571C169.551 72.0714 170.272 71.9286 171.086 71.9286C171.972 71.9286 172.665 72.0786 173.165 72.3786C173.679 72.6786 174.058 73.05 174.301 73.4928L175.372 68.5643C175.401 68.4214 175.465 68.3071 175.565 68.2214C175.679 68.1214 175.808 68.0714 175.951 68.0714H176.979C177.136 68.0714 177.251 68.1214 177.322 68.2214C177.394 68.3071 177.415 68.4214 177.386 68.5643L174.344 82.7928C174.315 82.9357 174.251 83.0571 174.151 83.1571C174.051 83.2428 173.922 83.2857 173.765 83.2857H172.801C172.658 83.2857 172.544 83.2428 172.458 83.1571C172.386 83.0571 172.365 82.9357 172.394 82.7928L172.586 81.8928C172.144 82.35 171.644 82.7357 171.086 83.05C170.544 83.35 169.822 83.5 168.922 83.5ZM169.351 81.7643C170.065 81.7643 170.694 81.6 171.236 81.2714C171.779 80.9428 172.215 80.5286 172.544 80.0286C172.886 79.5143 173.122 78.9928 173.251 78.4643C173.322 78.2357 173.386 77.9643 173.444 77.65C173.515 77.3214 173.572 77.0428 173.615 76.8143C173.715 76.3143 173.708 75.8214 173.594 75.3357C173.494 74.85 173.258 74.45 172.886 74.1357C172.529 73.8214 172.001 73.6643 171.301 73.6643C170.629 73.6643 170.044 73.8286 169.544 74.1571C169.058 74.4714 168.651 74.8928 168.322 75.4214C168.008 75.9357 167.758 76.4928 167.572 77.0928C167.515 77.3071 167.465 77.5143 167.422 77.7143C167.379 77.9143 167.344 78.1214 167.315 78.3357C167.229 78.9357 167.215 79.5 167.272 80.0286C167.344 80.5428 167.536 80.9643 167.851 81.2928C168.179 81.6071 168.679 81.7643 169.351 81.7643ZM181.26 83.5C180.245 83.5 179.445 83.3 178.86 82.9C178.288 82.4857 177.917 81.9143 177.745 81.1857C177.588 80.4571 177.602 79.6214 177.788 78.6786L179.074 72.6357C179.102 72.4928 179.174 72.3786 179.288 72.2928C179.402 72.1928 179.531 72.1428 179.674 72.1428H180.745C180.888 72.1428 180.988 72.1928 181.045 72.2928C181.117 72.3786 181.138 72.4928 181.11 72.6357L179.867 78.5714C179.71 79.2714 179.652 79.8643 179.695 80.35C179.752 80.8214 179.938 81.1786 180.252 81.4214C180.581 81.65 181.088 81.7643 181.774 81.7643C182.702 81.7643 183.517 81.4857 184.217 80.9286C184.917 80.3571 185.374 79.5714 185.588 78.5714L186.852 72.6357C186.881 72.4928 186.952 72.3786 187.067 72.2928C187.181 72.1928 187.31 72.1428 187.452 72.1428H188.502C188.645 72.1428 188.752 72.1928 188.824 72.2928C188.895 72.3786 188.917 72.4928 188.888 72.6357L186.724 82.7928C186.695 82.9357 186.624 83.0571 186.51 83.1571C186.41 83.2428 186.288 83.2857 186.145 83.2857H185.16C185.017 83.2857 184.902 83.2428 184.817 83.1571C184.745 83.0571 184.724 82.9357 184.752 82.7928L184.945 81.85C184.631 82.1786 184.31 82.4714 183.981 82.7286C183.652 82.9714 183.274 83.1571 182.845 83.2857C182.431 83.4286 181.902 83.5 181.26 83.5ZM193.379 83.5C192.593 83.5 191.943 83.3643 191.429 83.0928C190.914 82.8071 190.522 82.4286 190.25 81.9571C189.979 81.4714 189.807 80.9214 189.736 80.3071C189.679 79.6928 189.7 79.0428 189.8 78.3571C189.843 78.1286 189.886 77.9143 189.929 77.7143C189.972 77.5143 190.022 77.3 190.079 77.0714C190.25 76.4 190.479 75.7643 190.764 75.1643C191.05 74.55 191.407 74 191.836 73.5143C192.279 73.0143 192.807 72.6286 193.422 72.3571C194.05 72.0714 194.779 71.9286 195.607 71.9286C196.522 71.9286 197.207 72.0857 197.664 72.4C198.136 72.7 198.5 73.0714 198.757 73.5143L198.929 72.6357C198.957 72.4928 199.022 72.3786 199.122 72.2928C199.236 72.1928 199.372 72.1428 199.529 72.1428H200.493C200.636 72.1428 200.743 72.1928 200.814 72.2928C200.9 72.3786 200.929 72.4928 200.9 72.6357L198.736 82.7928C198.707 82.9357 198.636 83.0571 198.522 83.1571C198.422 83.2428 198.3 83.2857 198.157 83.2857H197.172C197.029 83.2857 196.922 83.2428 196.85 83.1571C196.779 83.0571 196.757 82.9357 196.786 82.7928L196.979 81.8928C196.536 82.35 196.05 82.7357 195.522 83.05C195.007 83.35 194.293 83.5 193.379 83.5ZM193.829 81.7643C194.543 81.7643 195.157 81.6 195.672 81.2714C196.2 80.9428 196.629 80.5286 196.957 80.0286C197.286 79.5143 197.514 78.9928 197.643 78.4643C197.7 78.2357 197.757 77.9643 197.814 77.65C197.886 77.3214 197.943 77.0428 197.986 76.8143C198.1 76.3143 198.107 75.8214 198.007 75.3357C197.922 74.85 197.7 74.45 197.343 74.1357C197 73.8214 196.479 73.6643 195.779 73.6643C195.107 73.6643 194.529 73.8286 194.043 74.1571C193.572 74.4714 193.179 74.8928 192.864 75.4214C192.564 75.9357 192.322 76.4928 192.136 77.0928C192.079 77.3071 192.029 77.5143 191.986 77.7143C191.943 77.9143 191.907 78.1214 191.879 78.3357C191.793 78.9357 191.772 79.5 191.814 80.0286C191.857 80.5428 192.036 80.9643 192.35 81.2928C192.664 81.6071 193.157 81.7643 193.829 81.7643ZM201.799 83.2857C201.656 83.2857 201.542 83.2428 201.456 83.1571C201.385 83.0571 201.363 82.9357 201.392 82.7928L204.435 68.5643C204.463 68.4214 204.527 68.3071 204.627 68.2214C204.742 68.1214 204.87 68.0714 205.013 68.0714H206.042C206.185 68.0714 206.292 68.1214 206.363 68.2214C206.435 68.3071 206.456 68.4214 206.427 68.5643L203.406 82.7928C203.377 82.9357 203.306 83.0571 203.192 83.1571C203.092 83.2428 202.97 83.2857 202.827 83.2857H201.799Z" fill="#0B1956"/>
<path d="M70.2857 102.571C83.6983 102.571 94.5714 91.6983 94.5714 78.2857C94.5714 64.8731 83.6983 54 70.2857 54C56.8731 54 46 64.8731 46 78.2857C46 91.6983 56.8731 102.571 70.2857 102.571Z" fill="#0B1956"/>
<path fill-rule="evenodd" clip-rule="evenodd" d="M58.625 78.2857C57.5798 79.7758 57.0222 81.5264 57.0222 83.317V84.9221C57.0222 85.1409 56.9308 85.3507 56.7679 85.5054C56.6051 85.66 56.3842 85.7469 56.154 85.7469C55.9237 85.7469 55.7028 85.66 55.54 85.5054C55.3772 85.3507 55.2857 85.1409 55.2857 84.9221V83.3187C55.2857 81.2015 55.9455 79.1317 57.182 77.3702L57.3695 77.1029C57.4973 76.9209 57.696 76.7946 57.9219 76.7518C58.1477 76.7089 58.3822 76.753 58.5738 76.8744C58.7654 76.9959 58.8984 77.1846 58.9435 77.3991C58.9886 77.6137 58.9421 77.8365 58.8143 78.0185L58.625 78.2857Z" fill="#FAF3EB"/>
<path fill-rule="evenodd" clip-rule="evenodd" d="M63.5221 75.6265C61.6293 75.6265 59.8633 76.5239 58.8144 78.0185L57.3696 77.1046C58.0447 76.1427 58.9593 75.3539 60.0323 74.8083C61.1053 74.2627 62.3034 73.9771 63.5204 73.9769H63.9024C64.1327 73.9769 64.3536 74.0638 64.5164 74.2185C64.6792 74.3732 64.7707 74.583 64.7707 74.8017C64.7707 75.0205 64.6792 75.2303 64.5164 75.385C64.3536 75.5396 64.1327 75.6265 63.9024 75.6265H63.5204H63.5221ZM68.8672 78.2659C69.6833 79.4306 70.1192 80.7965 70.1192 82.1953H71.8557C71.8561 80.4715 71.3189 78.7861 70.312 77.352L70.1383 77.1046C70.0768 77.011 69.9961 76.9301 69.9011 76.8666C69.806 76.8032 69.6986 76.7585 69.585 76.7352C69.4715 76.7119 69.3541 76.7105 69.24 76.731C69.1259 76.7516 69.0173 76.7937 68.9206 76.8549C68.8239 76.916 68.7411 76.995 68.6771 77.0871C68.6131 77.1792 68.5692 77.2826 68.5481 77.3911C68.5269 77.4996 68.5289 77.611 68.5538 77.7188C68.5788 77.8266 68.6263 77.9285 68.6935 78.0185L68.8672 78.2659Z" fill="#FAF3EB"/>
<path fill-rule="evenodd" clip-rule="evenodd" d="M63.9875 75.6265C65.8786 75.6265 67.6446 76.5239 68.6935 78.0185L70.1383 77.1046C69.4632 76.1427 68.5485 75.3539 67.4756 74.8083C66.4026 74.2627 65.2045 73.9771 63.9875 73.9769H63.6054C63.3752 73.9769 63.1543 74.0638 62.9915 74.2185C62.8287 74.3732 62.7372 74.583 62.7372 74.8017C62.7372 75.0205 62.8287 75.2303 62.9915 75.385C63.1543 75.5396 63.3752 75.6265 63.6054 75.6265H63.9875Z" fill="#FAF3EB"/>
<path fill-rule="evenodd" clip-rule="evenodd" d="M63.6436 73.7872C64.6799 73.7872 65.6737 73.3961 66.4064 72.7001C67.1392 72.004 67.5508 71.0599 67.5508 70.0755C67.5508 69.0911 67.1392 68.1471 66.4064 67.451C65.6737 66.7549 64.6799 66.3639 63.6436 66.3639C62.6074 66.3639 61.6136 66.7549 60.8809 67.451C60.1481 68.1471 59.7365 69.0911 59.7365 70.0755C59.7365 71.0599 60.1481 72.004 60.8809 72.7001C61.6136 73.3961 62.6074 73.7872 63.6436 73.7872ZM63.6436 75.4368C65.1405 75.4368 66.5759 74.872 67.6343 73.8665C68.6928 72.8611 69.2874 71.4974 69.2874 70.0755C69.2874 68.6536 68.6928 67.29 67.6343 66.2845C66.5759 65.2791 65.1405 64.7143 63.6436 64.7143C62.1468 64.7143 60.7113 65.2791 59.6529 66.2845C58.5945 67.29 57.9999 68.6536 57.9999 70.0755C57.9999 71.4974 58.5945 72.8611 59.6529 73.8665C60.7113 74.872 62.1468 75.4368 63.6436 75.4368ZM71.0395 83.5793C69.9934 85.0697 69.4351 86.821 69.435 88.6123V90.318C69.435 90.5368 69.3435 90.7466 69.1807 90.9013C69.0178 91.0559 68.797 91.1428 68.5667 91.1428C68.3364 91.1428 68.1156 91.0559 67.9527 90.9013C67.7899 90.7466 67.6984 90.5368 67.6984 90.318V88.6123C67.6983 86.4958 68.3575 84.4267 69.593 82.6654L69.8239 82.3355C69.8873 82.2454 69.9688 82.168 70.0637 82.1078C70.1585 82.0476 70.265 82.0057 70.3769 81.9846C70.4888 81.9634 70.604 81.9635 70.7159 81.9846C70.8278 82.0058 70.9342 82.0476 71.0291 82.1079C71.124 82.1681 71.2054 82.2455 71.2688 82.3356C71.3322 82.4257 71.3763 82.5268 71.3985 82.6331C71.4208 82.7394 71.4207 82.8489 71.3985 82.9552C71.3762 83.0615 71.3321 83.1626 71.2687 83.2527L71.0395 83.5793Z" fill="#FAF3EB"/>
<path fill-rule="evenodd" clip-rule="evenodd" d="M76.0941 80.798C75.1389 80.7979 74.1984 81.0219 73.3563 81.4501C72.5141 81.8783 71.7963 82.4975 71.2666 83.2527L69.8235 82.3371C70.5117 81.3564 71.4441 80.5522 72.538 79.9959C73.6318 79.4396 74.8534 79.1485 76.0941 79.1484H76.4831C76.7134 79.1484 76.9342 79.2353 77.0971 79.39C77.2599 79.5447 77.3514 79.7545 77.3514 79.9732C77.3514 80.192 77.2599 80.4018 77.0971 80.5565C76.9342 80.7112 76.7134 80.798 76.4831 80.798H76.0941ZM81.6284 83.5793C82.6746 85.0697 83.2329 86.821 83.233 88.6123V90.318C83.233 90.5368 83.3245 90.7466 83.4873 90.9012C83.6501 91.0559 83.871 91.1428 84.1013 91.1428C84.3315 91.1428 84.5524 91.0559 84.7152 90.9012C84.878 90.7466 84.9695 90.5368 84.9695 90.318V88.6123C84.9692 86.4957 84.3094 84.4265 83.0732 82.6654L82.8423 82.3355C82.7789 82.2454 82.6974 82.168 82.6025 82.1078C82.5077 82.0476 82.4012 82.0057 82.2893 81.9846C82.1774 81.9634 82.0622 81.9634 81.9503 81.9846C81.8384 82.0057 81.732 82.0476 81.6371 82.1078C81.5423 82.1681 81.4608 82.2455 81.3974 82.3356C81.334 82.4257 81.29 82.5268 81.2677 82.6331C81.2455 82.7394 81.2455 82.8489 81.2677 82.9552C81.29 83.0615 81.3341 83.1626 81.3975 83.2527L81.6284 83.5793Z" fill="#FAF3EB"/>
<path fill-rule="evenodd" clip-rule="evenodd" d="M76.572 80.798C77.5272 80.7979 78.4677 81.0219 79.3099 81.4501C80.152 81.8783 80.8698 82.4975 81.3995 83.2527L82.8443 82.3371C82.156 81.3561 81.2233 80.5518 80.1291 79.9955C79.0349 79.4392 77.813 79.1483 76.572 79.1484H76.1812C75.951 79.1484 75.7301 79.2353 75.5673 79.39C75.4045 79.5447 75.313 79.7545 75.313 79.9732C75.313 80.192 75.4045 80.4018 75.5673 80.5565C75.7301 80.7112 75.951 80.798 76.1812 80.798H76.572Z" fill="#FAF3EB"/>
<path fill-rule="evenodd" clip-rule="evenodd" d="M76.2336 79.1484C77.2698 79.1484 78.2636 78.7574 78.9963 78.0613C79.7291 77.3653 80.1407 76.4212 80.1407 75.4368C80.1407 74.4524 79.7291 73.5083 78.9963 72.8123C78.2636 72.1162 77.2698 71.7252 76.2336 71.7252C75.1973 71.7252 74.2035 72.1162 73.4708 72.8123C72.738 73.5083 72.3264 74.4524 72.3264 75.4368C72.3264 76.4212 72.738 77.3653 73.4708 78.0613C74.2035 78.7574 75.1973 79.1484 76.2336 79.1484ZM76.2336 80.7981C77.7304 80.7981 79.1659 80.2332 80.2243 79.2278C81.2827 78.2224 81.8773 76.8587 81.8773 75.4368C81.8773 74.0149 81.2827 72.6512 80.2243 71.6458C79.1659 70.6404 77.7304 70.0755 76.2336 70.0755C74.7367 70.0755 73.3012 70.6404 72.2428 71.6458C71.1844 72.6512 70.5898 74.0149 70.5898 75.4368C70.5898 76.8587 71.1844 78.2224 72.2428 79.2278C73.3012 80.2332 74.7367 80.7981 76.2336 80.7981Z" fill="#FAF3EB"/>
<circle cx="258.143" cy="78.2857" r="24.2857" fill="#0B1956"/>
<path d="M264.648 74.4694C265.504 73.949 266.103 73.1684 266.446 72.2143C266.788 71.2602 266.788 70.3061 266.531 69.352C266.274 68.398 265.675 67.6173 264.905 67.0102C264.135 66.4031 263.107 66.1429 262.166 66.1429H254.291C253.264 66.1429 252.322 66.4898 251.552 67.0102C250.61 67.6173 250.097 68.4847 249.755 69.352C249.498 70.3061 249.498 71.3469 249.84 72.2143C250.182 73.1684 250.782 73.949 251.638 74.4694C251.038 74.9031 250.439 75.4235 250.097 76.1173C249.755 76.8112 249.583 77.5051 249.583 78.2857C249.583 79.0663 249.755 79.7602 250.097 80.4541C250.439 81.148 250.953 81.6684 251.638 82.102C250.782 82.6224 250.182 83.4031 249.84 84.3571C249.498 85.3112 249.498 86.2653 249.755 87.2194C250.011 88.1735 250.61 88.9541 251.466 89.5612C252.237 90.1684 253.264 90.4286 254.205 90.4286C255.404 90.4286 256.602 89.9082 257.544 89.1275C258.4 88.2602 258.913 87.1326 258.913 85.9184V81.7551C259.769 82.5357 260.882 82.9694 261.995 82.9694H262.08C263.107 82.9694 264.049 82.6224 264.819 82.102C265.59 81.4949 266.189 80.7143 266.446 79.7602C266.702 78.8061 266.702 77.852 266.36 76.898C266.103 75.7704 265.419 74.9898 264.648 74.4694ZM258.913 67.6173H262.08C262.508 67.6173 262.936 67.6173 263.279 67.7908C263.707 67.9643 264.049 68.1378 264.306 68.4847C264.648 68.7449 264.819 69.0918 264.991 69.5255C265.162 69.9592 265.247 70.3061 265.247 70.7398C265.247 71.1735 265.162 71.6071 264.991 71.9541C264.819 72.301 264.563 72.648 264.306 72.9949C263.963 73.2551 263.621 73.5153 263.279 73.6888C262.851 73.8622 262.423 73.8622 262.08 73.8622H258.913V67.6173ZM254.205 67.6173H257.373V73.6888H254.205C253.435 73.6888 252.665 73.3418 252.151 72.7347C251.552 72.2143 251.295 71.4337 251.295 70.6531C251.295 69.8724 251.638 69.0918 252.151 68.5714C252.665 68.051 253.435 67.7041 254.205 67.6173ZM251.124 78.2857C251.124 77.5051 251.466 76.7245 252.066 76.1173C252.665 75.5102 253.435 75.25 254.291 75.25H257.458V81.3214H254.291C253.435 81.3214 252.665 80.9745 252.066 80.4541C251.466 79.8469 251.124 79.0663 251.124 78.2857ZM257.373 85.8316C257.373 86.699 257.03 87.4796 256.431 88C255.832 88.6071 255.061 88.8673 254.205 88.8673C253.778 88.8673 253.35 88.8673 253.007 88.6939C252.579 88.5204 252.237 88.3469 251.98 88.0867C251.638 87.8265 251.466 87.4796 251.295 87.0459C251.124 86.699 251.038 86.2653 251.038 85.8316C251.038 85.398 251.124 84.9643 251.295 84.6173C251.466 84.2704 251.723 83.9235 251.98 83.5765C252.322 83.3163 252.665 83.0561 253.007 82.8826C253.435 82.7092 253.863 82.7092 254.205 82.7092H257.373V85.8316ZM262.08 81.3214H261.995C261.224 81.3214 260.454 80.9745 259.94 80.3673C259.427 79.7602 259.084 79.0663 259.084 78.2857C259.084 77.5051 259.427 76.7245 259.94 76.2041C260.454 75.5969 261.224 75.3367 261.995 75.25H262.08C262.508 75.25 262.936 75.25 263.279 75.4235C263.707 75.5969 264.049 75.7704 264.306 76.1173C264.648 76.3775 264.819 76.7245 264.991 77.1582C265.162 77.5051 265.247 77.9388 265.247 78.3724C265.247 78.8061 265.162 79.2398 264.991 79.5867C264.819 79.9337 264.563 80.2806 264.306 80.6275C263.963 80.8878 263.621 81.148 263.279 81.3214H262.08Z" fill="#FAF3EB"/>
<circle cx="412.286" cy="78.2857" r="24.2857" fill="#0B1956"/>
<circle cx="571.286" cy="78.2857" r="24.2857" fill="#0B1956"/>
<path d="M525.007 139C524.864 139 524.757 138.957 524.686 138.871C524.614 138.771 524.593 138.65 524.621 138.507L527.6 124.514C527.629 124.357 527.693 124.236 527.793 124.15C527.907 124.05 528.036 124 528.179 124H533.986C534.957 124 535.75 124.179 536.364 124.536C536.993 124.879 537.436 125.35 537.693 125.95C537.95 126.55 538 127.221 537.843 127.964C537.7 128.593 537.486 129.121 537.2 129.55C536.929 129.964 536.621 130.3 536.279 130.557C535.95 130.8 535.629 130.986 535.314 131.114C535.814 131.429 536.221 131.886 536.536 132.486C536.85 133.071 536.914 133.8 536.729 134.671C536.557 135.457 536.25 136.179 535.807 136.836C535.379 137.493 534.779 138.021 534.007 138.421C533.25 138.807 532.3 139 531.157 139H525.007ZM526.979 137.264H531.114C532 137.264 532.757 137.014 533.386 136.514C534.029 136.014 534.429 135.4 534.586 134.671C534.743 133.914 534.657 133.293 534.329 132.807C534 132.307 533.307 132.057 532.25 132.057H528.093L526.979 137.264ZM528.457 130.343H532.314C533.2 130.343 533.943 130.136 534.543 129.721C535.143 129.293 535.521 128.714 535.679 127.986C535.85 127.257 535.764 126.7 535.421 126.314C535.079 125.929 534.457 125.736 533.557 125.736H529.443L528.457 130.343ZM542.426 139.214C541.412 139.214 540.612 139.014 540.026 138.614C539.455 138.2 539.084 137.629 538.912 136.9C538.755 136.171 538.769 135.336 538.955 134.393L540.241 128.35C540.269 128.207 540.341 128.093 540.455 128.007C540.569 127.907 540.698 127.857 540.841 127.857H541.912C542.055 127.857 542.155 127.907 542.212 128.007C542.284 128.093 542.305 128.207 542.276 128.35L541.034 134.286C540.876 134.986 540.819 135.579 540.862 136.064C540.919 136.536 541.105 136.893 541.419 137.136C541.748 137.364 542.255 137.479 542.941 137.479C543.869 137.479 544.684 137.2 545.384 136.643C546.084 136.071 546.541 135.286 546.755 134.286L548.019 128.35C548.048 128.207 548.119 128.093 548.234 128.007C548.348 127.907 548.476 127.857 548.619 127.857H549.669C549.812 127.857 549.919 127.907 549.991 128.007C550.062 128.093 550.084 128.207 550.055 128.35L547.891 138.507C547.862 138.65 547.791 138.771 547.676 138.871C547.576 138.957 547.455 139 547.312 139H546.326C546.184 139 546.069 138.957 545.984 138.871C545.912 138.771 545.891 138.65 545.919 138.507L546.112 137.564C545.798 137.893 545.476 138.186 545.148 138.443C544.819 138.686 544.441 138.871 544.012 139C543.598 139.143 543.069 139.214 542.426 139.214ZM554.546 139.214C553.746 139.214 553.081 139.114 552.553 138.914C552.024 138.714 551.61 138.471 551.31 138.186C551.01 137.9 550.803 137.614 550.688 137.329C550.588 137.043 550.546 136.814 550.56 136.643C550.588 136.486 550.66 136.364 550.774 136.279C550.903 136.193 551.024 136.15 551.138 136.15H552.103C552.174 136.15 552.238 136.164 552.296 136.193C552.353 136.207 552.403 136.264 552.446 136.364C552.588 136.564 552.753 136.764 552.938 136.964C553.124 137.164 553.367 137.329 553.667 137.457C553.981 137.586 554.396 137.65 554.91 137.65C555.624 137.65 556.246 137.514 556.774 137.243C557.317 136.957 557.646 136.543 557.76 136C557.831 135.643 557.788 135.357 557.631 135.143C557.474 134.929 557.174 134.736 556.731 134.564C556.288 134.393 555.653 134.214 554.824 134.029C554.01 133.829 553.381 133.586 552.938 133.3C552.51 133 552.231 132.65 552.103 132.25C551.988 131.836 551.981 131.371 552.081 130.857C552.21 130.329 552.474 129.821 552.874 129.336C553.288 128.836 553.831 128.429 554.503 128.114C555.188 127.8 555.988 127.643 556.903 127.643C557.646 127.643 558.26 127.736 558.746 127.921C559.246 128.107 559.638 128.343 559.924 128.629C560.21 128.9 560.403 129.171 560.503 129.443C560.617 129.714 560.66 129.943 560.631 130.129C560.617 130.271 560.546 130.393 560.417 130.493C560.303 130.579 560.181 130.621 560.053 130.621H559.174C559.074 130.621 558.988 130.6 558.917 130.557C558.86 130.514 558.817 130.464 558.788 130.407C558.674 130.221 558.538 130.036 558.381 129.85C558.238 129.664 558.024 129.514 557.738 129.4C557.467 129.271 557.081 129.207 556.581 129.207C555.867 129.207 555.296 129.357 554.867 129.657C554.453 129.957 554.196 130.336 554.096 130.793C554.038 131.064 554.06 131.307 554.16 131.521C554.274 131.736 554.531 131.929 554.931 132.1C555.346 132.271 555.967 132.457 556.796 132.657C557.696 132.843 558.381 133.093 558.853 133.407C559.338 133.721 559.653 134.086 559.796 134.5C559.938 134.914 559.953 135.393 559.838 135.936C559.724 136.536 559.431 137.086 558.96 137.586C558.503 138.086 557.903 138.486 557.16 138.786C556.417 139.071 555.546 139.214 554.546 139.214ZM561.333 139C561.191 139 561.076 138.957 560.991 138.871C560.919 138.771 560.898 138.65 560.926 138.507L563.091 128.35C563.119 128.207 563.191 128.093 563.305 128.007C563.419 127.907 563.548 127.857 563.691 127.857H564.719C564.862 127.857 564.962 127.907 565.019 128.007C565.091 128.093 565.112 128.207 565.083 128.35L562.941 138.507C562.912 138.65 562.841 138.771 562.726 138.871C562.626 138.957 562.505 139 562.362 139H561.333ZM563.969 125.779C563.826 125.779 563.719 125.736 563.648 125.65C563.576 125.55 563.548 125.429 563.562 125.286L563.841 124.129C563.869 123.986 563.933 123.871 564.033 123.786C564.148 123.686 564.276 123.636 564.419 123.636H565.748C565.905 123.636 566.019 123.686 566.091 123.786C566.176 123.871 566.205 123.986 566.176 124.129L565.919 125.286C565.891 125.429 565.819 125.55 565.705 125.65C565.591 125.736 565.462 125.779 565.319 125.779H563.969ZM566.008 139C565.866 139 565.751 138.957 565.666 138.871C565.594 138.771 565.573 138.65 565.601 138.507L567.766 128.35C567.794 128.207 567.866 128.093 567.98 128.007C568.094 127.907 568.223 127.857 568.366 127.857H569.373C569.516 127.857 569.623 127.907 569.694 128.007C569.766 128.093 569.787 128.207 569.758 128.35L569.544 129.293C569.987 128.807 570.523 128.414 571.151 128.114C571.78 127.8 572.494 127.643 573.294 127.643C574.323 127.643 575.13 127.85 575.716 128.264C576.301 128.664 576.68 129.229 576.851 129.957C577.023 130.671 577.001 131.507 576.787 132.464L575.501 138.507C575.473 138.65 575.401 138.771 575.287 138.871C575.187 138.957 575.066 139 574.923 139H573.851C573.708 139 573.594 138.957 573.508 138.871C573.437 138.771 573.416 138.65 573.444 138.507L574.708 132.571C574.937 131.514 574.923 130.721 574.666 130.193C574.423 129.65 573.794 129.379 572.78 129.379C571.794 129.379 570.951 129.664 570.251 130.236C569.566 130.793 569.116 131.571 568.901 132.571L567.658 138.507C567.63 138.65 567.558 138.771 567.444 138.871C567.344 138.957 567.223 139 567.08 139H566.008ZM582.646 139.214C581.675 139.214 580.868 139.007 580.225 138.593C579.596 138.179 579.161 137.593 578.918 136.836C578.675 136.064 578.625 135.164 578.768 134.136C578.796 133.95 578.839 133.714 578.896 133.429C578.968 133.129 579.032 132.886 579.089 132.7C579.375 131.686 579.796 130.8 580.354 130.043C580.925 129.271 581.618 128.679 582.432 128.264C583.246 127.85 584.139 127.643 585.111 127.643C586.196 127.643 587.054 127.871 587.682 128.329C588.311 128.786 588.732 129.436 588.946 130.279C589.161 131.121 589.154 132.107 588.925 133.236L588.839 133.6C588.811 133.757 588.732 133.879 588.604 133.964C588.489 134.05 588.361 134.093 588.218 134.093H580.825C580.825 134.107 580.818 134.136 580.804 134.179C580.804 134.221 580.796 134.257 580.782 134.286C580.696 134.871 580.711 135.421 580.825 135.936C580.939 136.436 581.175 136.843 581.532 137.157C581.904 137.471 582.389 137.629 582.989 137.629C583.504 137.629 583.946 137.55 584.318 137.393C584.704 137.236 585.018 137.064 585.261 136.879C585.504 136.679 585.675 136.529 585.775 136.429C585.946 136.243 586.068 136.136 586.139 136.107C586.225 136.064 586.354 136.043 586.525 136.043H587.554C587.682 136.043 587.782 136.086 587.854 136.171C587.925 136.243 587.946 136.35 587.918 136.493C587.861 136.707 587.689 136.971 587.404 137.286C587.132 137.586 586.761 137.886 586.289 138.186C585.832 138.486 585.296 138.736 584.682 138.936C584.068 139.121 583.389 139.214 582.646 139.214ZM581.146 132.614H586.996L587.018 132.55C587.189 131.907 587.204 131.336 587.061 130.836C586.932 130.336 586.675 129.943 586.289 129.657C585.904 129.357 585.404 129.207 584.789 129.207C584.175 129.207 583.625 129.357 583.139 129.657C582.654 129.943 582.239 130.336 581.896 130.836C581.568 131.336 581.325 131.907 581.168 132.55L581.146 132.614ZM593.481 139.214C592.681 139.214 592.017 139.114 591.488 138.914C590.96 138.714 590.545 138.471 590.245 138.186C589.945 137.9 589.738 137.614 589.624 137.329C589.524 137.043 589.481 136.814 589.495 136.643C589.524 136.486 589.595 136.364 589.71 136.279C589.838 136.193 589.96 136.15 590.074 136.15H591.038C591.11 136.15 591.174 136.164 591.231 136.193C591.288 136.207 591.338 136.264 591.381 136.364C591.524 136.564 591.688 136.764 591.874 136.964C592.06 137.164 592.303 137.329 592.603 137.457C592.917 137.586 593.331 137.65 593.845 137.65C594.56 137.65 595.181 137.514 595.71 137.243C596.253 136.957 596.581 136.543 596.695 136C596.767 135.643 596.724 135.357 596.567 135.143C596.41 134.929 596.11 134.736 595.667 134.564C595.224 134.393 594.588 134.214 593.76 134.029C592.945 133.829 592.317 133.586 591.874 133.3C591.445 133 591.167 132.65 591.038 132.25C590.924 131.836 590.917 131.371 591.017 130.857C591.145 130.329 591.41 129.821 591.81 129.336C592.224 128.836 592.767 128.429 593.438 128.114C594.124 127.8 594.924 127.643 595.838 127.643C596.581 127.643 597.195 127.736 597.681 127.921C598.181 128.107 598.574 128.343 598.86 128.629C599.145 128.9 599.338 129.171 599.438 129.443C599.553 129.714 599.595 129.943 599.567 130.129C599.553 130.271 599.481 130.393 599.353 130.493C599.238 130.579 599.117 130.621 598.988 130.621H598.11C598.01 130.621 597.924 130.6 597.853 130.557C597.795 130.514 597.753 130.464 597.724 130.407C597.61 130.221 597.474 130.036 597.317 129.85C597.174 129.664 596.96 129.514 596.674 129.4C596.403 129.271 596.017 129.207 595.517 129.207C594.803 129.207 594.231 129.357 593.803 129.657C593.388 129.957 593.131 130.336 593.031 130.793C592.974 131.064 592.995 131.307 593.095 131.521C593.21 131.736 593.467 131.929 593.867 132.1C594.281 132.271 594.903 132.457 595.731 132.657C596.631 132.843 597.317 133.093 597.788 133.407C598.274 133.721 598.588 134.086 598.731 134.5C598.874 134.914 598.888 135.393 598.774 135.936C598.66 136.536 598.367 137.086 597.895 137.586C597.438 138.086 596.838 138.486 596.095 138.786C595.353 139.071 594.481 139.214 593.481 139.214ZM603.869 139.214C603.069 139.214 602.405 139.114 601.876 138.914C601.348 138.714 600.933 138.471 600.633 138.186C600.333 137.9 600.126 137.614 600.012 137.329C599.912 137.043 599.869 136.814 599.883 136.643C599.912 136.486 599.983 136.364 600.098 136.279C600.226 136.193 600.348 136.15 600.462 136.15H601.426C601.498 136.15 601.562 136.164 601.619 136.193C601.676 136.207 601.726 136.264 601.769 136.364C601.912 136.564 602.076 136.764 602.262 136.964C602.448 137.164 602.69 137.329 602.99 137.457C603.305 137.586 603.719 137.65 604.233 137.65C604.948 137.65 605.569 137.514 606.098 137.243C606.64 136.957 606.969 136.543 607.083 136C607.155 135.643 607.112 135.357 606.955 135.143C606.798 134.929 606.498 134.736 606.055 134.564C605.612 134.393 604.976 134.214 604.148 134.029C603.333 133.829 602.705 133.586 602.262 133.3C601.833 133 601.555 132.65 601.426 132.25C601.312 131.836 601.305 131.371 601.405 130.857C601.533 130.329 601.798 129.821 602.198 129.336C602.612 128.836 603.155 128.429 603.826 128.114C604.512 127.8 605.312 127.643 606.226 127.643C606.969 127.643 607.583 127.736 608.069 127.921C608.569 128.107 608.962 128.343 609.248 128.629C609.533 128.9 609.726 129.171 609.826 129.443C609.94 129.714 609.983 129.943 609.955 130.129C609.94 130.271 609.869 130.393 609.74 130.493C609.626 130.579 609.505 130.621 609.376 130.621H608.498C608.398 130.621 608.312 130.6 608.24 130.557C608.183 130.514 608.14 130.464 608.112 130.407C607.998 130.221 607.862 130.036 607.705 129.85C607.562 129.664 607.348 129.514 607.062 129.4C606.79 129.271 606.405 129.207 605.905 129.207C605.19 129.207 604.619 129.357 604.19 129.657C603.776 129.957 603.519 130.336 603.419 130.793C603.362 131.064 603.383 131.307 603.483 131.521C603.598 131.736 603.855 131.929 604.255 132.1C604.669 132.271 605.29 132.457 606.119 132.657C607.019 132.843 607.705 133.093 608.176 133.407C608.662 133.721 608.976 134.086 609.119 134.5C609.262 134.914 609.276 135.393 609.162 135.936C609.048 136.536 608.755 137.086 608.283 137.586C607.826 138.086 607.226 138.486 606.483 138.786C605.74 139.071 604.869 139.214 603.869 139.214ZM619.421 139C618.478 139 617.778 138.85 617.321 138.55C616.864 138.236 616.593 137.8 616.507 137.243C616.435 136.671 616.478 136 616.635 135.229L617.835 129.571H616.164C616.021 129.571 615.914 129.529 615.843 129.443C615.771 129.343 615.75 129.221 615.778 129.079L615.928 128.35C615.957 128.207 616.028 128.093 616.143 128.007C616.257 127.907 616.385 127.857 616.528 127.857H618.2L618.971 124.279C619 124.136 619.064 124.021 619.164 123.936C619.278 123.836 619.407 123.786 619.55 123.786H620.557C620.7 123.786 620.807 123.836 620.878 123.936C620.95 124.021 620.971 124.136 620.943 124.279L620.171 127.857H622.85C622.993 127.857 623.1 127.907 623.171 128.007C623.243 128.093 623.264 128.207 623.235 128.35L623.064 129.079C623.035 129.221 622.964 129.343 622.85 129.443C622.75 129.529 622.628 129.571 622.485 129.571H619.828L618.65 135.079C618.564 135.521 618.507 135.907 618.478 136.236C618.45 136.564 618.521 136.814 618.693 136.986C618.864 137.157 619.185 137.243 619.657 137.243H621.071C621.214 137.243 621.314 137.293 621.371 137.393C621.443 137.479 621.464 137.593 621.435 137.736L621.285 138.507C621.257 138.65 621.185 138.771 621.071 138.871C620.971 138.957 620.843 139 620.685 139H619.421ZM623.702 143.071C623.531 143.071 623.417 143 623.359 142.857C623.302 142.714 623.338 142.55 623.467 142.364L626.102 138.25L624.002 128.436C623.974 128.293 623.995 128.164 624.067 128.05C624.138 127.921 624.281 127.857 624.495 127.857H625.438C625.595 127.857 625.709 127.893 625.781 127.964C625.852 128.021 625.895 128.107 625.909 128.221L627.538 136.043L632.574 128.221C632.631 128.121 632.709 128.036 632.809 127.964C632.909 127.893 633.038 127.857 633.195 127.857H634.309C634.438 127.857 634.545 127.914 634.631 128.029C634.731 128.143 634.724 128.293 634.609 128.479L625.417 142.707C625.345 142.807 625.259 142.893 625.159 142.964C625.074 143.036 624.952 143.071 624.795 143.071H623.702ZM633.66 143.071C633.517 143.071 633.41 143.021 633.338 142.921C633.253 142.836 633.224 142.721 633.253 142.579L636.296 128.35C636.324 128.207 636.388 128.093 636.488 128.007C636.603 127.907 636.731 127.857 636.874 127.857H637.86C638.003 127.857 638.11 127.907 638.181 128.007C638.253 128.093 638.274 128.207 638.246 128.35L638.053 129.293C638.51 128.821 639.01 128.429 639.553 128.114C640.096 127.8 640.824 127.643 641.738 127.643C642.524 127.643 643.181 127.786 643.71 128.071C644.238 128.343 644.638 128.721 644.91 129.207C645.196 129.679 645.374 130.221 645.446 130.836C645.531 131.45 645.517 132.1 645.403 132.786C645.374 133.014 645.331 133.229 645.274 133.429C645.231 133.629 645.181 133.843 645.124 134.071C644.953 134.729 644.717 135.364 644.417 135.979C644.131 136.593 643.76 137.15 643.303 137.65C642.86 138.136 642.324 138.521 641.696 138.807C641.081 139.079 640.367 139.214 639.553 139.214C638.681 139.214 637.988 139.064 637.474 138.764C636.96 138.45 636.588 138.064 636.36 137.607L635.288 142.579C635.26 142.721 635.188 142.836 635.074 142.921C634.974 143.021 634.846 143.071 634.688 143.071H633.66ZM639.338 137.479C640.024 137.479 640.61 137.321 641.096 137.007C641.596 136.679 642.003 136.257 642.317 135.743C642.646 135.214 642.896 134.65 643.067 134.05C643.138 133.836 643.196 133.629 643.238 133.429C643.281 133.229 643.317 133.021 643.346 132.807C643.431 132.207 643.438 131.65 643.367 131.136C643.31 130.607 643.117 130.186 642.788 129.871C642.474 129.543 641.974 129.379 641.288 129.379C640.574 129.379 639.946 129.543 639.403 129.871C638.874 130.2 638.438 130.621 638.096 131.136C637.753 131.636 637.517 132.15 637.388 132.679C637.331 132.907 637.267 133.179 637.196 133.493C637.138 133.807 637.088 134.086 637.046 134.329C636.96 134.829 636.96 135.321 637.046 135.807C637.146 136.293 637.381 136.693 637.753 137.007C638.124 137.321 638.653 137.479 639.338 137.479ZM650.883 139.214C649.912 139.214 649.105 139.007 648.462 138.593C647.833 138.179 647.397 137.593 647.155 136.836C646.912 136.064 646.862 135.164 647.005 134.136C647.033 133.95 647.076 133.714 647.133 133.429C647.205 133.129 647.269 132.886 647.326 132.7C647.612 131.686 648.033 130.8 648.59 130.043C649.162 129.271 649.855 128.679 650.669 128.264C651.483 127.85 652.376 127.643 653.347 127.643C654.433 127.643 655.29 127.871 655.919 128.329C656.547 128.786 656.969 129.436 657.183 130.279C657.397 131.121 657.39 132.107 657.162 133.236L657.076 133.6C657.047 133.757 656.969 133.879 656.84 133.964C656.726 134.05 656.597 134.093 656.455 134.093H649.062C649.062 134.107 649.055 134.136 649.04 134.179C649.04 134.221 649.033 134.257 649.019 134.286C648.933 134.871 648.947 135.421 649.062 135.936C649.176 136.436 649.412 136.843 649.769 137.157C650.14 137.471 650.626 137.629 651.226 137.629C651.74 137.629 652.183 137.55 652.555 137.393C652.94 137.236 653.255 137.064 653.497 136.879C653.74 136.679 653.912 136.529 654.012 136.429C654.183 136.243 654.305 136.136 654.376 136.107C654.462 136.064 654.59 136.043 654.762 136.043H655.79C655.919 136.043 656.019 136.086 656.09 136.171C656.162 136.243 656.183 136.35 656.155 136.493C656.097 136.707 655.926 136.971 655.64 137.286C655.369 137.586 654.997 137.886 654.526 138.186C654.069 138.486 653.533 138.736 652.919 138.936C652.305 139.121 651.626 139.214 650.883 139.214ZM649.383 132.614H655.233L655.255 132.55C655.426 131.907 655.44 131.336 655.297 130.836C655.169 130.336 654.912 129.943 654.526 129.657C654.14 129.357 653.64 129.207 653.026 129.207C652.412 129.207 651.862 129.357 651.376 129.657C650.89 129.943 650.476 130.336 650.133 130.836C649.805 131.336 649.562 131.907 649.405 132.55L649.383 132.614Z" fill="#0B1956"/>
<path d="M472.286 138.714C472.145 138.714 472.029 138.669 471.939 138.579C471.849 138.489 471.804 138.374 471.804 138.232V125.696C471.804 125.555 471.849 125.439 471.939 125.349C472.029 125.259 472.145 125.214 472.286 125.214H478.168C479.274 125.214 480.18 125.369 480.887 125.677C481.595 125.986 482.115 126.429 482.45 127.008C482.797 127.574 482.97 128.249 482.97 129.033C482.97 129.496 482.88 129.907 482.7 130.267C482.533 130.614 482.321 130.904 482.064 131.135C481.82 131.366 481.588 131.534 481.37 131.636C481.858 131.868 482.289 132.247 482.662 132.774C483.047 133.301 483.24 133.919 483.24 134.626C483.24 135.474 483.047 136.207 482.662 136.824C482.289 137.429 481.736 137.898 481.003 138.232C480.283 138.554 479.396 138.714 478.342 138.714H472.286ZM475.256 136.207H477.956C478.509 136.207 478.927 136.046 479.21 135.725C479.492 135.404 479.634 135.037 479.634 134.626C479.634 134.176 479.486 133.796 479.19 133.488C478.907 133.179 478.496 133.025 477.956 133.025H475.256V136.207ZM475.256 130.576H477.782C478.31 130.576 478.702 130.441 478.959 130.171C479.229 129.901 479.364 129.554 479.364 129.129C479.364 128.718 479.229 128.384 478.959 128.126C478.702 127.856 478.31 127.721 477.782 127.721H475.256V130.576ZM485.325 138.714C485.184 138.714 485.061 138.669 484.959 138.579C484.869 138.489 484.824 138.374 484.824 138.232V136.863C484.824 136.773 484.849 136.638 484.901 136.458C484.952 136.265 485.087 136.085 485.306 135.918L487.311 133.951C488.34 133.166 489.182 132.504 489.838 131.964C490.506 131.411 491.001 130.923 491.323 130.499C491.644 130.074 491.805 129.676 491.805 129.303C491.805 128.866 491.689 128.506 491.458 128.223C491.239 127.927 490.854 127.779 490.301 127.779C489.928 127.779 489.613 127.863 489.356 128.03C489.111 128.184 488.925 128.39 488.796 128.647C488.668 128.904 488.578 129.168 488.526 129.438C488.475 129.605 488.385 129.721 488.256 129.785C488.141 129.849 488.012 129.881 487.871 129.881H485.46C485.344 129.881 485.248 129.843 485.171 129.766C485.094 129.689 485.055 129.592 485.055 129.476C485.068 128.859 485.196 128.281 485.441 127.741C485.698 127.201 486.051 126.725 486.501 126.314C486.964 125.889 487.511 125.561 488.141 125.33C488.784 125.099 489.504 124.983 490.301 124.983C491.394 124.983 492.319 125.156 493.078 125.504C493.849 125.851 494.434 126.339 494.833 126.969C495.231 127.586 495.431 128.313 495.431 129.149C495.431 129.779 495.289 130.37 495.006 130.923C494.736 131.463 494.344 131.984 493.83 132.485C493.329 132.974 492.731 133.481 492.036 134.009L490.262 135.802H495.219C495.36 135.802 495.476 135.847 495.566 135.937C495.669 136.027 495.72 136.143 495.72 136.284V138.232C495.72 138.374 495.669 138.489 495.566 138.579C495.476 138.669 495.36 138.714 495.219 138.714H485.325ZM503.461 138.907C502.24 138.907 501.192 138.708 500.318 138.309C499.456 137.911 498.781 137.326 498.293 136.554C497.817 135.783 497.553 134.825 497.502 133.681C497.489 133.154 497.483 132.588 497.483 131.984C497.483 131.379 497.489 130.801 497.502 130.248C497.553 129.129 497.823 128.184 498.312 127.413C498.8 126.629 499.482 126.037 500.356 125.639C501.23 125.227 502.265 125.021 503.461 125.021C504.31 125.021 505.094 125.131 505.814 125.349C506.534 125.555 507.164 125.864 507.704 126.275C508.244 126.674 508.662 127.162 508.958 127.741C509.266 128.306 509.427 128.949 509.44 129.669C509.453 129.785 509.414 129.881 509.324 129.959C509.247 130.036 509.15 130.074 509.035 130.074H506.431C506.264 130.074 506.135 130.042 506.045 129.978C505.955 129.901 505.878 129.766 505.814 129.573C505.634 128.891 505.338 128.429 504.927 128.184C504.528 127.927 504.033 127.799 503.442 127.799C502.735 127.799 502.175 127.998 501.764 128.396C501.353 128.782 501.128 129.431 501.089 130.344C501.05 131.399 501.05 132.479 501.089 133.584C501.128 134.497 501.353 135.153 501.764 135.551C502.175 135.937 502.735 136.13 503.442 136.13C504.033 136.13 504.535 136.001 504.946 135.744C505.358 135.487 505.647 135.024 505.814 134.356C505.865 134.163 505.936 134.034 506.026 133.97C506.129 133.893 506.264 133.854 506.431 133.854H509.035C509.15 133.854 509.247 133.893 509.324 133.97C509.414 134.047 509.453 134.144 509.44 134.259C509.427 134.979 509.266 135.629 508.958 136.207C508.662 136.773 508.244 137.261 507.704 137.673C507.164 138.071 506.534 138.38 505.814 138.599C505.094 138.804 504.31 138.907 503.461 138.907Z" fill="#0B1956"/>
<path d="M401.611 74.4001C401.449 74.4001 401.294 74.4633 401.179 74.5758C401.064 74.6883 401 74.8409 401 75.0001V81C401 81.1592 401.064 81.3118 401.179 81.4243C401.294 81.5368 401.449 81.6 401.611 81.6C401.773 81.6 401.929 81.5368 402.043 81.4243C402.158 81.3118 402.222 81.1592 402.222 81V75.0001C402.222 74.8409 402.158 74.6883 402.043 74.5758C401.929 74.4633 401.773 74.4001 401.611 74.4001ZM416.698 68.8777L418.01 66.9313C418.099 66.7986 418.131 66.6364 418.099 66.4804C418.067 66.3245 417.973 66.1875 417.837 66.0997C417.702 66.0118 417.537 65.9803 417.378 66.0121C417.219 66.0438 417.08 66.1362 416.99 66.2689L415.695 68.1913C414.576 67.5425 413.3 67.2003 412 67.2003C410.7 67.2003 409.424 67.5425 408.305 68.1913L407.01 66.2689C406.92 66.1362 406.781 66.0438 406.622 66.0121C406.463 65.9803 406.298 66.0118 406.163 66.0997C406.027 66.1875 405.933 66.3245 405.901 66.4804C405.869 66.6364 405.901 66.7986 405.99 66.9313L407.302 68.8777C406.477 69.5521 405.813 70.3964 405.358 71.3508C404.903 72.3051 404.667 73.3462 404.667 74.4001V84.6C404.667 84.7591 404.731 84.9118 404.846 85.0243C404.96 85.1368 405.116 85.2 405.278 85.2H408.944V89.4C408.944 89.5591 409.009 89.7117 409.123 89.8243C409.238 89.9368 409.393 90 409.556 90C409.718 90 409.873 89.9368 409.988 89.8243C410.102 89.7117 410.167 89.5591 410.167 89.4V85.2H413.833V89.4C413.833 89.5591 413.898 89.7117 414.012 89.8243C414.127 89.9368 414.282 90 414.444 90C414.607 90 414.762 89.9368 414.877 89.8243C414.991 89.7117 415.056 89.5591 415.056 89.4V85.2H418.722C418.884 85.2 419.04 85.1368 419.154 85.0243C419.269 84.9118 419.333 84.7591 419.333 84.6V74.4001C419.333 73.3462 419.097 72.3052 418.642 71.3509C418.186 70.3966 417.523 69.5522 416.698 68.8777ZM418.111 84H405.889V75.6H418.111V84ZM405.889 74.4001C405.889 72.8088 406.533 71.2826 407.679 70.1574C408.825 69.0322 410.379 68.4001 412 68.4001C413.621 68.4001 415.175 69.0322 416.321 70.1574C417.467 71.2826 418.111 72.8088 418.111 74.4001H405.889ZM422.389 74.4001C422.227 74.4001 422.071 74.4633 421.957 74.5758C421.842 74.6883 421.778 74.8409 421.778 75.0001V81C421.778 81.1592 421.842 81.3118 421.957 81.4243C422.071 81.5368 422.227 81.6 422.389 81.6C422.551 81.6 422.706 81.5368 422.821 81.4243C422.936 81.3118 423 81.1592 423 81V75.0001C423 74.8409 422.936 74.6883 422.821 74.5758C422.706 74.4633 422.551 74.4001 422.389 74.4001Z" fill="#FAF3EB"/>
<path fill-rule="evenodd" clip-rule="evenodd" d="M566.4 67H576.6C577.502 67 578.367 67.3612 579.004 68.0042C579.642 68.6472 580 69.5193 580 70.4286V87.5714C580 88.4807 579.642 89.3528 579.004 89.9958C578.367 90.6388 577.502 91 576.6 91H566.4C565.498 91 564.633 90.6388 563.996 89.9958C563.358 89.3528 563 88.4807 563 87.5714V70.4286C563 69.5193 563.358 68.6472 563.996 68.0042C564.633 67.3612 565.498 67 566.4 67Z" stroke="#FAF3EB" stroke-width="1.2" stroke-linecap="round" stroke-linejoin="round"/>
<path d="M571.5 87C572.328 87 573 86.3284 573 85.5C573 84.6716 572.328 84 571.5 84C570.672 84 570 84.6716 570 85.5C570 86.3284 570.672 87 571.5 87Z" fill="#FAF3EB"/>
</svg>
