<?xml version="1.0" encoding="utf-8"?>
<!-- Generator: Adobe Illustrator 28.2.0, SVG Export Plug-In . SVG Version: 6.00 Build 0)  -->
<svg version="1.1" id="Layer_1" xmlns="http://www.w3.org/2000/svg" xmlns:xlink="http://www.w3.org/1999/xlink" x="0px" y="0px"
	 viewBox="0 0 64 64" style="enable-background:new 0 0 64 64;" xml:space="preserve">
<style type="text/css">
	.st0{fill:#192544;}
</style>
<path class="st0" d="M2,13.5v37h17.9c1.7,0,13.1-0.3,13.1-10.8c0-6.5-4.5-8.7-6.8-9.4c1.7-0.8,5-2.7,5-7.7c0-2.8-0.4-9.2-11.8-9.2H2
	z M42.8,16.9v3.4h13.8v-3.4H42.8z M10.1,19.8h7.6c0.7,0,5.6-0.4,5.6,4.2c0,4-3.5,4.4-4.9,4.4h-8.2V19.8z M50,23.4
	c-10.4,0-12.6,9.1-12.6,13c0,11.7,9.6,13,12.6,13c8.3,0,10.6-5.3,11.6-8.3h-6c-0.2,0.8-2,3.2-5.3,3.2c-5.6,0-6.1-4.4-6.1-6.3h17.8
	C62.3,31.2,59.3,23.4,50,23.4z M49.8,28.4c1.7,0,3,0.5,3.8,1.4c0.8,0.9,1.4,2.2,1.6,3.9h-11c0-0.5,0.1-1,0.3-1.6
	c0.2-0.6,0.4-1.2,0.9-1.8c0.4-0.5,1-1,1.8-1.4C47.8,28.6,48.7,28.4,49.8,28.4z M10.1,34h8.8c1.8,0,5.9,0.3,5.9,5.3
	c0,4.9-5.2,4.9-6,4.9h-8.7V34z"/>
</svg>
