<svg width="102" height="54" viewBox="0 0 102 54" fill="none" xmlns="http://www.w3.org/2000/svg">
<path d="M27.7734 0H49.4531V14.7656H45.3906C38.3333 14.7656 33.5156 13.6589 30.9375 11.4453C28.8281 9.6224 27.7734 6.67969 27.7734 2.61719V0ZM0 0H21.0156V21.4062H36.6797V31.6016H21.0156V53.0859H0V0ZM27.7344 49.375C27.7344 43.9844 30.8594 40.3255 37.1094 38.3984C39.5052 37.6693 42.5911 37.3047 46.3672 37.3047H49.4531V53.1641H27.7344V49.375Z" fill="#333333"/>
<path d="M86.7656 29.1641H101.766V39.1641H98.9548C94.0719 39.1641 90.7386 38.4145 88.9548 36.9154C87.4954 35.6808 86.7656 33.6879 86.7656 30.9365V29.1641Z" fill="#333333"/>
<path d="M57.7656 11.1641H78.7656V53.1641H57.7656V11.1641Z" fill="#333333"/>
<path fill-rule="evenodd" clip-rule="evenodd" d="M86.7656 53.3594H101.445V43.1641H86.7656V53.3594Z" fill="#333333"/>
</svg>
