<?xml version="1.0" encoding="utf-8"?>
<!-- Generator: Adobe Illustrator 28.2.0, SVG Export Plug-In . SVG Version: 6.00 Build 0)  -->
<svg version="1.1" id="Layer_1" xmlns="http://www.w3.org/2000/svg" xmlns:xlink="http://www.w3.org/1999/xlink" x="0px" y="0px"
	 viewBox="0 0 51.9 27.1" style="enable-background:new 0 0 51.9 27.1;" xml:space="preserve">
<style type="text/css">
	.st0{fill:#333333;}
	.st1{fill-rule:evenodd;clip-rule:evenodd;fill:#333333;}
</style>
<path class="st0" d="M14.2,0h11.1v7.5h-2.1c-3.6,0-6.1-0.6-7.4-1.7c-1.1-0.9-1.6-2.4-1.6-4.5V0z M0,0h10.7v10.9h8v5.2h-8v11H0V0z
	 M14.1,25.2c0-2.7,1.6-4.6,4.8-5.6c1.2-0.4,2.8-0.6,4.7-0.6h1.6v8.1H14.1V25.2z"/>
<path class="st0" d="M44.3,14.9h7.7V20h-1.4c-2.5,0-4.2-0.4-5.1-1.1c-0.7-0.6-1.1-1.6-1.1-3V14.9z"/>
<path class="st0" d="M29.5,5.7h10.7v21.4H29.5V5.7z"/>
<path class="st1" d="M44.3,27.2h7.5V22h-7.5V27.2z"/>
</svg>
